solid OpenSCAD_Model
  facet normal -1 0 0
    outer loop
      vertex 3.79098 -0.587785 -2
      vertex 3.79098 -0.587785 5
      vertex 3.79098 19.0878 -2
    endloop
  endfacet
  facet normal -1 0 0
    outer loop
      vertex 3.79098 19.0878 -2
      vertex 3.79098 -0.587785 5
      vertex 3.79098 19.0878 5
    endloop
  endfacet
  facet normal -0.309018 -0.951056 0
    outer loop
      vertex 3.79098 -0.587785 5
      vertex 3.79098 -0.587785 -2
      vertex 4.90902 -0.951057 -2
    endloop
  endfacet
  facet normal -0.309018 -0.951056 0
    outer loop
      vertex 4.90902 -0.951057 5
      vertex 3.79098 -0.587785 5
      vertex 4.90902 -0.951057 -2
    endloop
  endfacet
  facet normal -0.279981 -0.861692 -0.423198
    outer loop
      vertex 4.90902 -0.951057 -2
      vertex 3.79098 -0.587785 -2
      vertex 4.75451 -0.475528 -2.86602
    endloop
  endfacet
  facet normal -0.279981 -0.861693 -0.423197
    outer loop
      vertex 4.75451 -0.475528 -2.86602
      vertex 3.79098 -0.587785 -2
      vertex 4.19549 -0.293893 -2.86602
    endloop
  endfacet
  facet normal -0.906037 0 -0.423198
    outer loop
      vertex 3.79098 -0.587785 -2
      vertex 3.79098 19.0878 -2
      vertex 4.19549 -0.293893 -2.86602
    endloop
  endfacet
  facet normal -0.906037 0 -0.423198
    outer loop
      vertex 4.19549 -0.293893 -2.86602
      vertex 3.79098 19.0878 -2
      vertex 4.19549 18.7939 -2.86602
    endloop
  endfacet
  facet normal -0.279981 0.861693 -0.423197
    outer loop
      vertex 4.19549 18.7939 -2.86602
      vertex 3.79098 19.0878 -2
      vertex 4.90902 19.4511 -2
    endloop
  endfacet
  facet normal -0.309018 0.951056 0
    outer loop
      vertex 3.79098 19.0878 -2
      vertex 3.79098 19.0878 5
      vertex 4.90902 19.4511 -2
    endloop
  endfacet
  facet normal -0.309018 0.951056 0
    outer loop
      vertex 4.90902 19.4511 -2
      vertex 3.79098 19.0878 5
      vertex 4.90902 19.4511 5
    endloop
  endfacet
  facet normal -0.906037 0 0.423198
    outer loop
      vertex 3.79098 -0.587785 5
      vertex 4.19549 -0.293893 5.86602
      vertex 3.79098 19.0878 5
    endloop
  endfacet
  facet normal -0.906037 0 0.423198
    outer loop
      vertex 3.79098 19.0878 5
      vertex 4.19549 -0.293893 5.86602
      vertex 4.19549 18.7939 5.86602
    endloop
  endfacet
  facet normal -0.279981 0.861692 0.423198
    outer loop
      vertex 4.90902 19.4511 5
      vertex 3.79098 19.0878 5
      vertex 4.75451 18.9755 5.86602
    endloop
  endfacet
  facet normal -0.279981 0.861693 0.423197
    outer loop
      vertex 4.75451 18.9755 5.86602
      vertex 3.79098 19.0878 5
      vertex 4.19549 18.7939 5.86602
    endloop
  endfacet
  facet normal -0.279981 -0.861693 0.423197
    outer loop
      vertex 4.19549 -0.293893 5.86602
      vertex 3.79098 -0.587785 5
      vertex 4.90902 -0.951057 5
    endloop
  endfacet
  facet normal 0 -1 0
    outer loop
      vertex 6.4 -0.951057 0.3
      vertex 4.90902 -0.951057 -2
      vertex 56.409 -0.951057 -2
    endloop
  endfacet
  facet normal 0 -1 0
    outer loop
      vertex 51.1 -0.951057 1.5
      vertex 54.6 -0.951057 1.5
      vertex 51.1 -0.951057 2.3
    endloop
  endfacet
  facet normal 0 -1 0
    outer loop
      vertex 4.90902 -0.951057 5
      vertex 4.90902 -0.951057 -2
      vertex 6.4 -0.951057 0.3
    endloop
  endfacet
  facet normal 0 -1 0
    outer loop
      vertex 6.4 -0.951057 1.5
      vertex 43.1 -0.951057 1.5
      vertex 4.90902 -0.951057 5
    endloop
  endfacet
  facet normal 0 -1 0
    outer loop
      vertex 4.90902 -0.951057 5
      vertex 6.4 -0.951057 0.3
      vertex 6.4 -0.951057 1.5
    endloop
  endfacet
  facet normal 0 -1 0
    outer loop
      vertex 43.1 -0.951057 2.3
      vertex 4.90902 -0.951057 5
      vertex 43.1 -0.951057 1.5
    endloop
  endfacet
  facet normal 0 -1 0
    outer loop
      vertex 56.409 -0.951057 5
      vertex 4.90902 -0.951057 5
      vertex 43.1 -0.951057 2.3
    endloop
  endfacet
  facet normal 0 -1 0
    outer loop
      vertex 54.6 -0.951057 0.3
      vertex 51.1 -0.951057 0.3
      vertex 56.409 -0.951057 -2
    endloop
  endfacet
  facet normal 0 -1 0
    outer loop
      vertex 51.1 -0.951057 -0.1
      vertex 43.1 -0.951057 -0.1
      vertex 56.409 -0.951057 -2
    endloop
  endfacet
  facet normal 0 -1 0
    outer loop
      vertex 56.409 -0.951057 5
      vertex 54.6 -0.951057 1.5
      vertex 56.409 -0.951057 -2
    endloop
  endfacet
  facet normal 0 -1 0
    outer loop
      vertex 56.409 -0.951057 5
      vertex 51.1 -0.951057 2.3
      vertex 54.6 -0.951057 1.5
    endloop
  endfacet
  facet normal 0 -1 0
    outer loop
      vertex 54.6 -0.951057 1.5
      vertex 54.6 -0.951057 0.3
      vertex 56.409 -0.951057 -2
    endloop
  endfacet
  facet normal 0 -1 0
    outer loop
      vertex 51.1 -0.951057 0.3
      vertex 51.1 -0.951057 -0.1
      vertex 56.409 -0.951057 -2
    endloop
  endfacet
  facet normal 0 -1 0
    outer loop
      vertex 43.1 -0.951057 2.3
      vertex 51.1 -0.951057 2.3
      vertex 56.409 -0.951057 5
    endloop
  endfacet
  facet normal 0 -1 0
    outer loop
      vertex 43.1 -0.951057 -0.1
      vertex 6.4 -0.951057 0.3
      vertex 56.409 -0.951057 -2
    endloop
  endfacet
  facet normal 0 -1 0
    outer loop
      vertex 43.1 -0.951057 0.3
      vertex 6.4 -0.951057 0.3
      vertex 43.1 -0.951057 -0.1
    endloop
  endfacet
  facet normal -0.27998 -0.861693 0.423198
    outer loop
      vertex 4.75451 -0.475528 5.86602
      vertex 4.19549 -0.293893 5.86602
      vertex 4.90902 -0.951057 5
    endloop
  endfacet
  facet normal 0 -0.876551 0.481309
    outer loop
      vertex 56.2545 -0.475528 5.86602
      vertex 4.75451 -0.475528 5.86602
      vertex 4.90902 -0.951057 5
    endloop
  endfacet
  facet normal 0 -0.876551 0.481309
    outer loop
      vertex 56.409 -0.951057 5
      vertex 56.2545 -0.475528 5.86602
      vertex 4.90902 -0.951057 5
    endloop
  endfacet
  facet normal 0 -0.876551 -0.481309
    outer loop
      vertex 4.90902 -0.951057 -2
      vertex 4.75451 -0.475528 -2.86602
      vertex 56.2545 -0.475528 -2.86602
    endloop
  endfacet
  facet normal 0 -0.876551 -0.481309
    outer loop
      vertex 56.409 -0.951057 -2
      vertex 4.90902 -0.951057 -2
      vertex 56.2545 -0.475528 -2.86602
    endloop
  endfacet
  facet normal 0 0 -1
    outer loop
      vertex 56.1 -9.6331e-16 -2.86602
      vertex 4.75451 -0.475528 -2.86602
      vertex 4.6 -9.6331e-16 -2.86602
    endloop
  endfacet
  facet normal 0 0 -1
    outer loop
      vertex 4.6 18.5 -2.86602
      vertex 4.19549 18.7939 -2.86602
      vertex 4.75451 18.9755 -2.86602
    endloop
  endfacet
  facet normal 0 0 -1
    outer loop
      vertex 56.1 18.5 -2.86602
      vertex 56.2545 18.9755 -2.86602
      vertex 56.6 18.5 -2.86602
    endloop
  endfacet
  facet normal 0 0 -1
    outer loop
      vertex 56.1 -9.6331e-16 -2.86602
      vertex 56.6 18.5 -2.86602
      vertex 56.6 0 -2.86602
    endloop
  endfacet
  facet normal 0 0 -1
    outer loop
      vertex 4.75451 -0.475528 -2.86602
      vertex 56.6 0 -2.86602
      vertex 56.2545 -0.475528 -2.86602
    endloop
  endfacet
  facet normal 0 0 -1
    outer loop
      vertex 4.6 -9.6331e-16 -2.86602
      vertex 4.19549 18.7939 -2.86602
      vertex 4.6 18.5 -2.86602
    endloop
  endfacet
  facet normal 0 0 -1
    outer loop
      vertex 4.19549 -0.293893 -2.86602
      vertex 4.19549 18.7939 -2.86602
      vertex 4.6 -9.6331e-16 -2.86602
    endloop
  endfacet
  facet normal 0 0 -1
    outer loop
      vertex 4.19549 -0.293893 -2.86602
      vertex 4.6 -9.6331e-16 -2.86602
      vertex 4.75451 -0.475528 -2.86602
    endloop
  endfacet
  facet normal 0 0 -1
    outer loop
      vertex 56.1 18.5 -2.86602
      vertex 56.6 18.5 -2.86602
      vertex 56.1 -9.6331e-16 -2.86602
    endloop
  endfacet
  facet normal 0 0 -1
    outer loop
      vertex 4.75451 -0.475528 -2.86602
      vertex 56.1 -9.6331e-16 -2.86602
      vertex 56.6 0 -2.86602
    endloop
  endfacet
  facet normal 0 0 -1
    outer loop
      vertex 4.6 18.5 -2.86602
      vertex 4.75451 18.9755 -2.86602
      vertex 56.2545 18.9755 -2.86602
    endloop
  endfacet
  facet normal 0 0 -1
    outer loop
      vertex 4.6 18.5 -2.86602
      vertex 56.2545 18.9755 -2.86602
      vertex 56.1 18.5 -2.86602
    endloop
  endfacet
  facet normal -0.27998 0.861693 -0.423198
    outer loop
      vertex 4.75451 18.9755 -2.86602
      vertex 4.19549 18.7939 -2.86602
      vertex 4.90902 19.4511 -2
    endloop
  endfacet
  facet normal 0 1 0
    outer loop
      vertex 50.3804 19.4511 4.09282
      vertex 4.90902 19.4511 5
      vertex 56.409 19.4511 5
    endloop
  endfacet
  facet normal 0 1 0
    outer loop
      vertex 4.90902 19.4511 -2
      vertex 4.90902 19.4511 5
      vertex 9.23916 19.4511 3.4
    endloop
  endfacet
  facet normal 0 1 0
    outer loop
      vertex 4.90902 19.4511 -2
      vertex 9.23916 19.4511 3.4
      vertex 9.23916 19.4511 -0.6
    endloop
  endfacet
  facet normal 0 1 0
    outer loop
      vertex 4.90902 19.4511 -2
      vertex 9.23916 19.4511 -0.6
      vertex 9.61958 19.4511 -1.29282
    endloop
  endfacet
  facet normal 0 1 0
    outer loop
      vertex 4.90902 19.4511 -2
      vertex 9.61958 19.4511 -1.29282
      vertex 56.409 19.4511 -2
    endloop
  endfacet
  facet normal 0 1 0
    outer loop
      vertex 50.7608 19.4511 -0.6
      vertex 56.409 19.4511 -2
      vertex 50.3804 19.4511 -1.29282
    endloop
  endfacet
  facet normal 0 1 0
    outer loop
      vertex 9.61958 19.4511 4.09282
      vertex 4.90902 19.4511 5
      vertex 50.3804 19.4511 4.09282
    endloop
  endfacet
  facet normal 0 1 0
    outer loop
      vertex 56.409 19.4511 -2
      vertex 50.7608 19.4511 -0.6
      vertex 56.409 19.4511 5
    endloop
  endfacet
  facet normal 0 1 0
    outer loop
      vertex 50.7608 19.4511 -0.6
      vertex 50.7608 19.4511 3.4
      vertex 56.409 19.4511 5
    endloop
  endfacet
  facet normal 0 1 0
    outer loop
      vertex 50.7608 19.4511 3.4
      vertex 50.3804 19.4511 4.09282
      vertex 56.409 19.4511 5
    endloop
  endfacet
  facet normal 0 1 0
    outer loop
      vertex 9.23916 19.4511 3.4
      vertex 4.90902 19.4511 5
      vertex 9.61958 19.4511 4.09282
    endloop
  endfacet
  facet normal 0 1 0
    outer loop
      vertex 50.3804 19.4511 -1.29282
      vertex 56.409 19.4511 -2
      vertex 9.61958 19.4511 -1.29282
    endloop
  endfacet
  facet normal 0 0.876551 -0.481309
    outer loop
      vertex 4.75451 18.9755 -2.86602
      vertex 4.90902 19.4511 -2
      vertex 56.2545 18.9755 -2.86602
    endloop
  endfacet
  facet normal 0 0.876551 -0.481309
    outer loop
      vertex 56.2545 18.9755 -2.86602
      vertex 4.90902 19.4511 -2
      vertex 56.409 19.4511 -2
    endloop
  endfacet
  facet normal 0 0.876551 0.481309
    outer loop
      vertex 4.75451 18.9755 5.86602
      vertex 56.2545 18.9755 5.86602
      vertex 4.90902 19.4511 5
    endloop
  endfacet
  facet normal 0 0.876551 0.481309
    outer loop
      vertex 4.90902 19.4511 5
      vertex 56.2545 18.9755 5.86602
      vertex 56.409 19.4511 5
    endloop
  endfacet
  facet normal 0 0 1
    outer loop
      vertex 4.19549 18.7939 5.86602
      vertex 4.19549 -0.293893 5.86602
      vertex 4.75451 -0.475528 5.86602
    endloop
  endfacet
  facet normal 0 0 1
    outer loop
      vertex 16.9 2.7 5.86602
      vertex 4.19549 18.7939 5.86602
      vertex 4.75451 -0.475528 5.86602
    endloop
  endfacet
  facet normal 0 0 1
    outer loop
      vertex 41.975 8.75 5.86602
      vertex 4.19549 18.7939 5.86602
      vertex 56.6 0 5.86602
    endloop
  endfacet
  facet normal 0 0 1
    outer loop
      vertex 56.2545 18.9755 5.86602
      vertex 4.19549 18.7939 5.86602
      vertex 56.6 18.5 5.86602
    endloop
  endfacet
  facet normal 0 0 1
    outer loop
      vertex 4.75451 18.9755 5.86602
      vertex 4.19549 18.7939 5.86602
      vertex 56.2545 18.9755 5.86602
    endloop
  endfacet
  facet normal 0 0 1
    outer loop
      vertex 56.2545 -0.475528 5.86602
      vertex 16.9 2.7 5.86602
      vertex 4.75451 -0.475528 5.86602
    endloop
  endfacet
  facet normal 0 0 1
    outer loop
      vertex 16.9 5.7 5.86602
      vertex 4.19549 18.7939 5.86602
      vertex 16.9 2.7 5.86602
    endloop
  endfacet
  facet normal 0 0 1
    outer loop
      vertex 21.9 5.7 5.86602
      vertex 4.19549 18.7939 5.86602
      vertex 16.9 5.7 5.86602
    endloop
  endfacet
  facet normal 0 0 1
    outer loop
      vertex 43.175 10.75 5.86602
      vertex 43.175 8.75 5.86602
      vertex 43.4 10.75 5.86602
    endloop
  endfacet
  facet normal 0 0 1
    outer loop
      vertex 36.35 5.6 5.86602
      vertex 4.19549 18.7939 5.86602
      vertex 21.9 5.7 5.86602
    endloop
  endfacet
  facet normal 0 0 1
    outer loop
      vertex 56.2545 -0.475528 5.86602
      vertex 21.9 2.7 5.86602
      vertex 16.9 2.7 5.86602
    endloop
  endfacet
  facet normal 0 0 1
    outer loop
      vertex 56.2545 -0.475528 5.86602
      vertex 36.35 1.7 5.86602
      vertex 21.9 2.7 5.86602
    endloop
  endfacet
  facet normal 0 0 1
    outer loop
      vertex 44.6 10.75 5.86602
      vertex 44.6 8.75 5.86602
      vertex 56.6 18.5 5.86602
    endloop
  endfacet
  facet normal 0 0 1
    outer loop
      vertex 40.25 5.6 5.86602
      vertex 40.25 1.7 5.86602
      vertex 56.2545 -0.475528 5.86602
    endloop
  endfacet
  facet normal 0 0 1
    outer loop
      vertex 56.6 0 5.86602
      vertex 40.25 5.6 5.86602
      vertex 56.2545 -0.475528 5.86602
    endloop
  endfacet
  facet normal 0 0 1
    outer loop
      vertex 56.6 0 5.86602
      vertex 4.19549 18.7939 5.86602
      vertex 40.25 5.6 5.86602
    endloop
  endfacet
  facet normal 0 0 1
    outer loop
      vertex 56.2545 -0.475528 5.86602
      vertex 40.25 1.7 5.86602
      vertex 36.35 1.7 5.86602
    endloop
  endfacet
  facet normal 0 0 1
    outer loop
      vertex 36.35 1.7 5.86602
      vertex 36.35 5.6 5.86602
      vertex 21.9 5.7 5.86602
    endloop
  endfacet
  facet normal 0 0 1
    outer loop
      vertex 43.175 8.75 5.86602
      vertex 41.975 8.75 5.86602
      vertex 56.6 0 5.86602
    endloop
  endfacet
  facet normal 0 0 1
    outer loop
      vertex 41.975 10.75 5.86602
      vertex 4.19549 18.7939 5.86602
      vertex 41.975 8.75 5.86602
    endloop
  endfacet
  facet normal 0 0 1
    outer loop
      vertex 56.6 18.5 5.86602
      vertex 4.19549 18.7939 5.86602
      vertex 41.975 10.75 5.86602
    endloop
  endfacet
  facet normal 0 0 1
    outer loop
      vertex 56.6 18.5 5.86602
      vertex 41.975 10.75 5.86602
      vertex 43.175 10.75 5.86602
    endloop
  endfacet
  facet normal 0 0 1
    outer loop
      vertex 43.4 8.75 5.86602
      vertex 43.175 8.75 5.86602
      vertex 56.6 0 5.86602
    endloop
  endfacet
  facet normal 0 0 1
    outer loop
      vertex 44.6 8.75 5.86602
      vertex 43.4 8.75 5.86602
      vertex 56.6 0 5.86602
    endloop
  endfacet
  facet normal 0 0 1
    outer loop
      vertex 43.4 8.75 5.86602
      vertex 43.4 10.75 5.86602
      vertex 43.175 8.75 5.86602
    endloop
  endfacet
  facet normal 0 0 1
    outer loop
      vertex 56.6 18.5 5.86602
      vertex 43.175 10.75 5.86602
      vertex 43.4 10.75 5.86602
    endloop
  endfacet
  facet normal 0 0 1
    outer loop
      vertex 56.6 18.5 5.86602
      vertex 43.4 10.75 5.86602
      vertex 44.6 10.75 5.86602
    endloop
  endfacet
  facet normal 0 0 1
    outer loop
      vertex 56.6 18.5 5.86602
      vertex 44.6 8.75 5.86602
      vertex 56.6 0 5.86602
    endloop
  endfacet
  facet normal 0 0 1
    outer loop
      vertex 36.35 5.6 5.86602
      vertex 40.25 5.6 5.86602
      vertex 4.19549 18.7939 5.86602
    endloop
  endfacet
  facet normal 0 0 1
    outer loop
      vertex 21.9 5.7 5.86602
      vertex 21.9 2.7 5.86602
      vertex 36.35 1.7 5.86602
    endloop
  endfacet
  facet normal 0.732999 -0.532555 0.423198
    outer loop
      vertex 57.1 0 5
      vertex 56.2545 -0.475528 5.86602
      vertex 56.409 -0.951057 5
    endloop
  endfacet
  facet normal 0.809017 -0.587785 0
    outer loop
      vertex 56.409 -0.951057 5
      vertex 56.409 -0.951057 -2
      vertex 57.1 0 -2
    endloop
  endfacet
  facet normal 0.809017 -0.587785 0
    outer loop
      vertex 57.1 0 5
      vertex 56.409 -0.951057 5
      vertex 57.1 0 -2
    endloop
  endfacet
  facet normal 0.733 -0.532555 -0.423198
    outer loop
      vertex 57.1 0 -2
      vertex 56.409 -0.951057 -2
      vertex 56.6 0 -2.86602
    endloop
  endfacet
  facet normal 0.732999 -0.532556 -0.423199
    outer loop
      vertex 56.409 -0.951057 -2
      vertex 56.2545 -0.475528 -2.86602
      vertex 56.6 0 -2.86602
    endloop
  endfacet
  facet normal -1 0 0
    outer loop
      vertex 6.4 -3.3443 0.3
      vertex 6.4 -3.3443 1.5
      vertex 6.4 -0.951057 0.3
    endloop
  endfacet
  facet normal -1 0 0
    outer loop
      vertex 6.4 -0.951057 0.3
      vertex 6.4 -3.3443 1.5
      vertex 6.4 -0.951057 1.5
    endloop
  endfacet
  facet normal 0 0 -1
    outer loop
      vertex 6.4 -3.3443 0.3
      vertex 6.4 -0.951057 0.3
      vertex 7.30902 -3.04894 0.3
    endloop
  endfacet
  facet normal 0 0 -1
    outer loop
      vertex 7.30902 -3.04894 0.3
      vertex 6.4 -0.951057 0.3
      vertex 43.1 -0.951057 0.3
    endloop
  endfacet
  facet normal 0 0 -1
    outer loop
      vertex 7.30902 -3.04894 0.3
      vertex 43.1 -0.951057 0.3
      vertex 43.1 -3.04894 0.3
    endloop
  endfacet
  facet normal 1 0 0
    outer loop
      vertex 43.1 -0.951057 1.5
      vertex 43.1 -3.04894 0.3
      vertex 43.1 -0.951057 0.3
    endloop
  endfacet
  facet normal 1 0 0
    outer loop
      vertex 43.1 -3.04894 1.5
      vertex 43.1 -4 2.3
      vertex 43.1 -3.04894 0.3
    endloop
  endfacet
  facet normal 1 0 0
    outer loop
      vertex 43.1 -3.04894 -0.1
      vertex 43.1 -3.04894 0.3
      vertex 43.1 -4 2.3
    endloop
  endfacet
  facet normal 1 0 0
    outer loop
      vertex 43.1 -0.951057 -0.1
      vertex 43.1 -6.2457e-16 -0.1
      vertex 43.1 -0.951057 0.3
    endloop
  endfacet
  facet normal 1 0 0
    outer loop
      vertex 43.1 -6.2457e-16 -0.1
      vertex 43.1 -3.30655e-16 2.3
      vertex 43.1 -0.951057 0.3
    endloop
  endfacet
  facet normal 1 0 0
    outer loop
      vertex 43.1 -0.951057 1.5
      vertex 43.1 -3.04894 1.5
      vertex 43.1 -3.04894 0.3
    endloop
  endfacet
  facet normal 1 0 0
    outer loop
      vertex 43.1 -3.30655e-16 2.3
      vertex 43.1 -0.951057 1.5
      vertex 43.1 -0.951057 0.3
    endloop
  endfacet
  facet normal 1 0 0
    outer loop
      vertex 43.1 -3.04894 2.3
      vertex 43.1 -4 2.3
      vertex 43.1 -3.04894 1.5
    endloop
  endfacet
  facet normal 1 0 0
    outer loop
      vertex 43.1 -4 2.3
      vertex 43.1 -4 -0.1
      vertex 43.1 -3.04894 -0.1
    endloop
  endfacet
  facet normal 1 0 0
    outer loop
      vertex 43.1 -0.951057 2.3
      vertex 43.1 -0.951057 1.5
      vertex 43.1 -3.30655e-16 2.3
    endloop
  endfacet
  facet normal 0 1.22465e-16 1
    outer loop
      vertex 51.1 -0.951057 -0.1
      vertex 51.1 -6.2457e-16 -0.1
      vertex 43.1 -6.2457e-16 -0.1
    endloop
  endfacet
  facet normal 0 1.22465e-16 1
    outer loop
      vertex 43.1 -0.951057 -0.1
      vertex 51.1 -0.951057 -0.1
      vertex 43.1 -6.2457e-16 -0.1
    endloop
  endfacet
  facet normal -1 0 0
    outer loop
      vertex 51.1 -3.04894 2.3
      vertex 51.1 -3.04894 1.5
      vertex 51.1 -4 2.3
    endloop
  endfacet
  facet normal -1 0 0
    outer loop
      vertex 51.1 -0.951057 0.3
      vertex 51.1 -3.04894 1.5
      vertex 51.1 -6.2457e-16 -0.1
    endloop
  endfacet
  facet normal -1 0 0
    outer loop
      vertex 51.1 -3.30655e-16 2.3
      vertex 51.1 -0.951057 1.5
      vertex 51.1 -0.951057 2.3
    endloop
  endfacet
  facet normal -1 0 0
    outer loop
      vertex 51.1 -6.2457e-16 -0.1
      vertex 51.1 -0.951057 1.5
      vertex 51.1 -3.30655e-16 2.3
    endloop
  endfacet
  facet normal -1 0 0
    outer loop
      vertex 51.1 -3.04894 1.5
      vertex 51.1 -0.951057 1.5
      vertex 51.1 -6.2457e-16 -0.1
    endloop
  endfacet
  facet normal -1 0 0
    outer loop
      vertex 51.1 -0.951057 -0.1
      vertex 51.1 -0.951057 0.3
      vertex 51.1 -6.2457e-16 -0.1
    endloop
  endfacet
  facet normal -1 0 0
    outer loop
      vertex 51.1 -4 2.3
      vertex 51.1 -3.04894 1.5
      vertex 51.1 -3.04894 0.3
    endloop
  endfacet
  facet normal -1 0 0
    outer loop
      vertex 51.1 -4 2.3
      vertex 51.1 -3.04894 0.3
      vertex 51.1 -3.04894 -0.1
    endloop
  endfacet
  facet normal -1 0 0
    outer loop
      vertex 51.1 -4 2.3
      vertex 51.1 -3.04894 -0.1
      vertex 51.1 -4 -0.1
    endloop
  endfacet
  facet normal -1 0 0
    outer loop
      vertex 51.1 -3.04894 0.3
      vertex 51.1 -3.04894 1.5
      vertex 51.1 -0.951057 0.3
    endloop
  endfacet
  facet normal 0 0 -1
    outer loop
      vertex 51.1 -3.04894 0.3
      vertex 51.1 -0.951057 0.3
      vertex 54.6 -3.04894 0.3
    endloop
  endfacet
  facet normal 0 0 -1
    outer loop
      vertex 54.6 -3.04894 0.3
      vertex 51.1 -0.951057 0.3
      vertex 54.6 -0.951057 0.3
    endloop
  endfacet
  facet normal 1 0 0
    outer loop
      vertex 54.6 -3.04894 1.5
      vertex 54.6 -3.04894 0.3
      vertex 54.6 -0.951057 0.3
    endloop
  endfacet
  facet normal 1 0 0
    outer loop
      vertex 54.6 -0.951057 1.5
      vertex 54.6 -3.04894 1.5
      vertex 54.6 -0.951057 0.3
    endloop
  endfacet
  facet normal 0 0 1
    outer loop
      vertex 51.1 -0.951057 1.5
      vertex 51.1 -3.04894 1.5
      vertex 54.6 -3.04894 1.5
    endloop
  endfacet
  facet normal 0 0 1
    outer loop
      vertex 54.6 -0.951057 1.5
      vertex 51.1 -0.951057 1.5
      vertex 54.6 -3.04894 1.5
    endloop
  endfacet
  facet normal 0 -1.22465e-16 -1
    outer loop
      vertex 51.1 -3.30655e-16 2.3
      vertex 51.1 -0.951057 2.3
      vertex 43.1 -3.30655e-16 2.3
    endloop
  endfacet
  facet normal 0 -1.22465e-16 -1
    outer loop
      vertex 43.1 -3.30655e-16 2.3
      vertex 51.1 -0.951057 2.3
      vertex 43.1 -0.951057 2.3
    endloop
  endfacet
  facet normal 0 0 1
    outer loop
      vertex 6.4 -0.951057 1.5
      vertex 6.4 -3.3443 1.5
      vertex 7.30902 -3.04894 1.5
    endloop
  endfacet
  facet normal 0 0 1
    outer loop
      vertex 43.1 -3.04894 1.5
      vertex 6.4 -0.951057 1.5
      vertex 7.30902 -3.04894 1.5
    endloop
  endfacet
  facet normal 0 0 1
    outer loop
      vertex 43.1 -3.04894 1.5
      vertex 43.1 -0.951057 1.5
      vertex 6.4 -0.951057 1.5
    endloop
  endfacet
  facet normal 0.732999 -0.532556 0.423197
    outer loop
      vertex 56.6 0 5.86602
      vertex 56.2545 -0.475528 5.86602
      vertex 57.1 0 5
    endloop
  endfacet
  facet normal 0.866025 0 -0.5
    outer loop
      vertex 57.1 0 -2
      vertex 56.6 0 -2.86602
      vertex 56.6 18.5 -2.86602
    endloop
  endfacet
  facet normal 0.866025 0 -0.5
    outer loop
      vertex 57.1 18.5 -2
      vertex 57.1 0 -2
      vertex 56.6 18.5 -2.86602
    endloop
  endfacet
  facet normal 0.732999 0.532556 -0.423197
    outer loop
      vertex 56.6 18.5 -2.86602
      vertex 56.2545 18.9755 -2.86602
      vertex 57.1 18.5 -2
    endloop
  endfacet
  facet normal 0.732999 0.532555 -0.423198
    outer loop
      vertex 57.1 18.5 -2
      vertex 56.2545 18.9755 -2.86602
      vertex 56.409 19.4511 -2
    endloop
  endfacet
  facet normal 1 0 0
    outer loop
      vertex 4.6 18.5 -2.86602
      vertex 4.6 18.5 5
      vertex 4.6 0 5
    endloop
  endfacet
  facet normal 1 0 0
    outer loop
      vertex 4.6 -9.6331e-16 -2.86602
      vertex 4.6 18.5 -2.86602
      vertex 4.6 0 5
    endloop
  endfacet
  facet normal 0 -1 1.22465e-16
    outer loop
      vertex 56.1 18.5 -2.86602
      vertex 56.1 18.5 5
      vertex 4.6 18.5 5
    endloop
  endfacet
  facet normal 0 -1 1.22465e-16
    outer loop
      vertex 4.6 18.5 -2.86602
      vertex 56.1 18.5 -2.86602
      vertex 4.6 18.5 5
    endloop
  endfacet
  facet normal -1 0 0
    outer loop
      vertex 56.1 2.5 2.4
      vertex 56.1 0 5
      vertex 56.1 6.2 2.4
    endloop
  endfacet
  facet normal -1 0 0
    outer loop
      vertex 56.1 2.5 0.75
      vertex 56.1 18.5 -2.86602
      vertex 56.1 -9.6331e-16 -2.86602
    endloop
  endfacet
  facet normal -1 0 0
    outer loop
      vertex 56.1 8.1 -0.4
      vertex 56.1 18.5 -2.86602
      vertex 56.1 2.5 0.75
    endloop
  endfacet
  facet normal -1 0 0
    outer loop
      vertex 56.1 0 5
      vertex 56.1 2.5 0.75
      vertex 56.1 -9.6331e-16 -2.86602
    endloop
  endfacet
  facet normal -1 0 0
    outer loop
      vertex 56.1 18.5 5
      vertex 56.1 6.2 2.4
      vertex 56.1 0 5
    endloop
  endfacet
  facet normal -1 0 0
    outer loop
      vertex 56.1 8.1 -0.4
      vertex 56.1 6.2 0.75
      vertex 56.1 6.2 2.4
    endloop
  endfacet
  facet normal -1 0 0
    outer loop
      vertex 56.1 0 5
      vertex 56.1 2.5 2.4
      vertex 56.1 2.5 0.75
    endloop
  endfacet
  facet normal -1 0 0
    outer loop
      vertex 56.1 17.1 -0.4
      vertex 56.1 18.5 -2.86602
      vertex 56.1 8.1 -0.4
    endloop
  endfacet
  facet normal -1 0 0
    outer loop
      vertex 56.1 6.2 0.75
      vertex 56.1 8.1 -0.4
      vertex 56.1 2.5 0.75
    endloop
  endfacet
  facet normal -1 0 0
    outer loop
      vertex 56.1 18.5 5
      vertex 56.1 18.5 -2.86602
      vertex 56.1 17.1 -0.4
    endloop
  endfacet
  facet normal -1 0 0
    outer loop
      vertex 56.1 18.5 5
      vertex 56.1 17.1 -0.4
      vertex 56.1 17.1 2.4
    endloop
  endfacet
  facet normal -1 0 0
    outer loop
      vertex 56.1 18.5 5
      vertex 56.1 8.1 2.4
      vertex 56.1 6.2 2.4
    endloop
  endfacet
  facet normal -1 0 0
    outer loop
      vertex 56.1 17.1 2.4
      vertex 56.1 8.1 2.4
      vertex 56.1 18.5 5
    endloop
  endfacet
  facet normal -1 0 0
    outer loop
      vertex 56.1 8.1 -0.4
      vertex 56.1 6.2 2.4
      vertex 56.1 8.1 2.4
    endloop
  endfacet
  facet normal 0 1 -1.22465e-16
    outer loop
      vertex 43.1 -6.2457e-16 -0.1
      vertex 56.1 -9.6331e-16 -2.86602
      vertex 4.6 0 5
    endloop
  endfacet
  facet normal 0 1 -1.22465e-16
    outer loop
      vertex 4.6 0 5
      vertex 56.1 -9.6331e-16 -2.86602
      vertex 4.6 -9.6331e-16 -2.86602
    endloop
  endfacet
  facet normal 0 1 -1.22465e-16
    outer loop
      vertex 51.1 -6.2457e-16 -0.1
      vertex 56.1 -9.6331e-16 -2.86602
      vertex 43.1 -6.2457e-16 -0.1
    endloop
  endfacet
  facet normal 0 1 -1.22465e-16
    outer loop
      vertex 43.1 -3.30655e-16 2.3
      vertex 43.1 -6.2457e-16 -0.1
      vertex 4.6 0 5
    endloop
  endfacet
  facet normal 0 1 -1.22465e-16
    outer loop
      vertex 56.1 0 5
      vertex 56.1 -9.6331e-16 -2.86602
      vertex 51.1 -6.2457e-16 -0.1
    endloop
  endfacet
  facet normal 0 1 -1.22465e-16
    outer loop
      vertex 56.1 0 5
      vertex 51.1 -6.2457e-16 -0.1
      vertex 51.1 -3.30655e-16 2.3
    endloop
  endfacet
  facet normal 0 1 -1.22465e-16
    outer loop
      vertex 56.1 0 5
      vertex 43.1 -3.30655e-16 2.3
      vertex 4.6 0 5
    endloop
  endfacet
  facet normal 0 1 -1.22465e-16
    outer loop
      vertex 43.1 -3.30655e-16 2.3
      vertex 56.1 0 5
      vertex 51.1 -3.30655e-16 2.3
    endloop
  endfacet
  facet normal 0.809017 0.587785 0
    outer loop
      vertex 57.1 18.5 -2
      vertex 56.409 19.4511 -2
      vertex 56.409 19.4511 5
    endloop
  endfacet
  facet normal 0.809017 0.587785 0
    outer loop
      vertex 57.1 18.5 5
      vertex 57.1 18.5 -2
      vertex 56.409 19.4511 5
    endloop
  endfacet
  facet normal 0.733 0.532555 0.423198
    outer loop
      vertex 57.1 18.5 5
      vertex 56.409 19.4511 5
      vertex 56.6 18.5 5.86602
    endloop
  endfacet
  facet normal 0.732999 0.532556 0.423199
    outer loop
      vertex 56.409 19.4511 5
      vertex 56.2545 18.9755 5.86602
      vertex 56.6 18.5 5.86602
    endloop
  endfacet
  facet normal -1 -2.22045e-16 0
    outer loop
      vertex 9.23915 21.9528 -0.6
      vertex 9.23916 19.4511 -0.6
      vertex 9.23915 21.9528 3.4
    endloop
  endfacet
  facet normal -1 -2.22045e-16 0
    outer loop
      vertex 9.23915 21.9528 3.4
      vertex 9.23916 19.4511 -0.6
      vertex 9.23916 19.4511 3.4
    endloop
  endfacet
  facet normal -0.876552 -1.94634e-16 0.481308
    outer loop
      vertex 9.23915 21.9528 3.4
      vertex 9.23916 19.4511 3.4
      vertex 9.61958 22.0764 4.09282
    endloop
  endfacet
  facet normal -0.876552 -1.94634e-16 0.481308
    outer loop
      vertex 9.61958 22.0764 4.09282
      vertex 9.23916 19.4511 3.4
      vertex 9.61958 19.4511 4.09282
    endloop
  endfacet
  facet normal 0 0 1
    outer loop
      vertex 9.76489 22.5236 4.09282
      vertex 9.61958 22.0764 4.09282
      vertex 9.61958 19.4511 4.09282
    endloop
  endfacet
  facet normal 0 0 1
    outer loop
      vertex 43.3333 19.75 4.09282
      vertex 16.6667 19.75 4.09282
      vertex 50.3804 19.4511 4.09282
    endloop
  endfacet
  facet normal 0 0 1
    outer loop
      vertex 16.2862 20.0264 4.09282
      vertex 9.76489 22.5236 4.09282
      vertex 9.61958 19.4511 4.09282
    endloop
  endfacet
  facet normal 0 0 1
    outer loop
      vertex 50.2351 22.5236 4.09282
      vertex 9.76489 22.5236 4.09282
      vertex 50.3804 22.0764 4.09282
    endloop
  endfacet
  facet normal 0 0 1
    outer loop
      vertex 16.6667 19.75 4.09282
      vertex 16.2862 20.0264 4.09282
      vertex 9.61958 19.4511 4.09282
    endloop
  endfacet
  facet normal 0 0 1
    outer loop
      vertex 16.2862 20.7764 4.09282
      vertex 9.76489 22.5236 4.09282
      vertex 16.2862 20.0264 4.09282
    endloop
  endfacet
  facet normal 0 0 1
    outer loop
      vertex 16.4316 21.2236 4.09282
      vertex 9.76489 22.5236 4.09282
      vertex 16.2862 20.7764 4.09282
    endloop
  endfacet
  facet normal 0 0 1
    outer loop
      vertex 50.3804 22.0764 4.09282
      vertex 43.5684 21.2236 4.09282
      vertex 50.3804 19.4511 4.09282
    endloop
  endfacet
  facet normal 0 0 1
    outer loop
      vertex 50.3804 22.0764 4.09282
      vertex 9.76489 22.5236 4.09282
      vertex 43.5684 21.2236 4.09282
    endloop
  endfacet
  facet normal 0 0 1
    outer loop
      vertex 43.5684 21.2236 4.09282
      vertex 43.7138 20.7764 4.09282
      vertex 50.3804 19.4511 4.09282
    endloop
  endfacet
  facet normal 0 0 1
    outer loop
      vertex 43.7138 20.7764 4.09282
      vertex 43.7138 20.0264 4.09282
      vertex 50.3804 19.4511 4.09282
    endloop
  endfacet
  facet normal 0 0 1
    outer loop
      vertex 43.7138 20.0264 4.09282
      vertex 43.3333 19.75 4.09282
      vertex 50.3804 19.4511 4.09282
    endloop
  endfacet
  facet normal 0 0 1
    outer loop
      vertex 50.3804 19.4511 4.09282
      vertex 16.6667 19.75 4.09282
      vertex 9.61958 19.4511 4.09282
    endloop
  endfacet
  facet normal 0 0 1
    outer loop
      vertex 16.4316 21.2236 4.09282
      vertex 43.5684 21.2236 4.09282
      vertex 9.76489 22.5236 4.09282
    endloop
  endfacet
  facet normal 0.876552 1.94634e-16 0.481308
    outer loop
      vertex 50.7608 21.9528 3.4
      vertex 50.3804 22.0764 4.09282
      vertex 50.3804 19.4511 4.09282
    endloop
  endfacet
  facet normal 0.876552 1.94634e-16 0.481308
    outer loop
      vertex 50.7608 19.4511 3.4
      vertex 50.7608 21.9528 3.4
      vertex 50.3804 19.4511 4.09282
    endloop
  endfacet
  facet normal 1 2.22045e-16 0
    outer loop
      vertex 50.7608 19.4511 -0.6
      vertex 50.7608 21.9528 -0.6
      vertex 50.7608 21.9528 3.4
    endloop
  endfacet
  facet normal 1 2.22045e-16 0
    outer loop
      vertex 50.7608 19.4511 3.4
      vertex 50.7608 19.4511 -0.6
      vertex 50.7608 21.9528 3.4
    endloop
  endfacet
  facet normal 0.876552 1.94634e-16 -0.481308
    outer loop
      vertex 50.3804 19.4511 -1.29282
      vertex 50.3804 22.0764 -1.29282
      vertex 50.7608 21.9528 -0.6
    endloop
  endfacet
  facet normal 0.876552 1.94634e-16 -0.481308
    outer loop
      vertex 50.7608 19.4511 -0.6
      vertex 50.3804 19.4511 -1.29282
      vertex 50.7608 21.9528 -0.6
    endloop
  endfacet
  facet normal 0 0 -1
    outer loop
      vertex 9.61958 22.0764 -1.29282
      vertex 9.76489 22.5236 -1.29282
      vertex 9.61958 19.4511 -1.29282
    endloop
  endfacet
  facet normal 0 0 -1
    outer loop
      vertex 16.4316 21.2236 -1.29282
      vertex 9.76489 22.5236 -1.29282
      vertex 50.2351 22.5236 -1.29282
    endloop
  endfacet
  facet normal 0 0 -1
    outer loop
      vertex 16.4316 21.2236 -1.29282
      vertex 50.3804 22.0764 -1.29282
      vertex 43.5684 21.2236 -1.29282
    endloop
  endfacet
  facet normal 0 0 -1
    outer loop
      vertex 43.3333 19.75 -1.29282
      vertex 50.3804 22.0764 -1.29282
      vertex 50.3804 19.4511 -1.29282
    endloop
  endfacet
  facet normal 0 0 -1
    outer loop
      vertex 9.61958 19.4511 -1.29282
      vertex 9.76489 22.5236 -1.29282
      vertex 16.2862 20.7764 -1.29282
    endloop
  endfacet
  facet normal 0 0 -1
    outer loop
      vertex 9.61958 19.4511 -1.29282
      vertex 16.2862 20.7764 -1.29282
      vertex 16.2862 20.0264 -1.29282
    endloop
  endfacet
  facet normal 0 0 -1
    outer loop
      vertex 16.4316 21.2236 -1.29282
      vertex 50.2351 22.5236 -1.29282
      vertex 50.3804 22.0764 -1.29282
    endloop
  endfacet
  facet normal 0 0 -1
    outer loop
      vertex 9.61958 19.4511 -1.29282
      vertex 16.6667 19.75 -1.29282
      vertex 50.3804 19.4511 -1.29282
    endloop
  endfacet
  facet normal 0 0 -1
    outer loop
      vertex 43.7138 20.0264 -1.29282
      vertex 50.3804 22.0764 -1.29282
      vertex 43.3333 19.75 -1.29282
    endloop
  endfacet
  facet normal 0 0 -1
    outer loop
      vertex 16.6667 19.75 -1.29282
      vertex 43.3333 19.75 -1.29282
      vertex 50.3804 19.4511 -1.29282
    endloop
  endfacet
  facet normal 0 0 -1
    outer loop
      vertex 43.7138 20.7764 -1.29282
      vertex 50.3804 22.0764 -1.29282
      vertex 43.7138 20.0264 -1.29282
    endloop
  endfacet
  facet normal 0 0 -1
    outer loop
      vertex 43.5684 21.2236 -1.29282
      vertex 50.3804 22.0764 -1.29282
      vertex 43.7138 20.7764 -1.29282
    endloop
  endfacet
  facet normal 0 0 -1
    outer loop
      vertex 16.2862 20.7764 -1.29282
      vertex 9.76489 22.5236 -1.29282
      vertex 16.4316 21.2236 -1.29282
    endloop
  endfacet
  facet normal 0 0 -1
    outer loop
      vertex 16.6667 19.75 -1.29282
      vertex 9.61958 19.4511 -1.29282
      vertex 16.2862 20.0264 -1.29282
    endloop
  endfacet
  facet normal -0.876552 -1.94634e-16 -0.481308
    outer loop
      vertex 9.23915 21.9528 -0.6
      vertex 9.61958 22.0764 -1.29282
      vertex 9.23916 19.4511 -0.6
    endloop
  endfacet
  facet normal -0.876552 -1.94634e-16 -0.481308
    outer loop
      vertex 9.23916 19.4511 -0.6
      vertex 9.61958 22.0764 -1.29282
      vertex 9.61958 19.4511 -1.29282
    endloop
  endfacet
  facet normal 0.866025 0 0.5
    outer loop
      vertex 56.6 18.5 5.86602
      vertex 56.6 0 5.86602
      vertex 57.1 0 5
    endloop
  endfacet
  facet normal 0.866025 0 0.5
    outer loop
      vertex 57.1 18.5 5
      vertex 56.6 18.5 5.86602
      vertex 57.1 0 5
    endloop
  endfacet
  facet normal 1 0 0
    outer loop
      vertex 16.9 5.7 5
      vertex 16.9 5.7 5.86602
      vertex 16.9 2.7 5.86602
    endloop
  endfacet
  facet normal 1 0 0
    outer loop
      vertex 16.9 2.7 5
      vertex 16.9 5.7 5
      vertex 16.9 2.7 5.86602
    endloop
  endfacet
  facet normal 0 1 -1.22465e-16
    outer loop
      vertex 21.9 2.7 5.86602
      vertex 21.9 2.7 5
      vertex 16.9 2.7 5.86602
    endloop
  endfacet
  facet normal 0 1 -1.22465e-16
    outer loop
      vertex 16.9 2.7 5.86602
      vertex 21.9 2.7 5
      vertex 16.9 2.7 5
    endloop
  endfacet
  facet normal -1 0 0
    outer loop
      vertex 21.9 5.7 5.86602
      vertex 21.9 5.7 5
      vertex 21.9 2.7 5.86602
    endloop
  endfacet
  facet normal -1 0 0
    outer loop
      vertex 21.9 2.7 5.86602
      vertex 21.9 5.7 5
      vertex 21.9 2.7 5
    endloop
  endfacet
  facet normal 0 -1 1.22465e-16
    outer loop
      vertex 21.9 5.7 5
      vertex 21.9 5.7 5.86602
      vertex 16.9 5.7 5.86602
    endloop
  endfacet
  facet normal 0 -1 1.22465e-16
    outer loop
      vertex 16.9 5.7 5
      vertex 21.9 5.7 5
      vertex 16.9 5.7 5.86602
    endloop
  endfacet
  facet normal 1 0 0
    outer loop
      vertex 36.35 5.6 5
      vertex 36.35 5.6 5.86602
      vertex 36.35 1.7 5.86602
    endloop
  endfacet
  facet normal 1 0 0
    outer loop
      vertex 36.35 1.7 5
      vertex 36.35 5.6 5
      vertex 36.35 1.7 5.86602
    endloop
  endfacet
  facet normal 0 1 -1.22465e-16
    outer loop
      vertex 40.25 1.7 5.86602
      vertex 40.25 1.7 5
      vertex 36.35 1.7 5.86602
    endloop
  endfacet
  facet normal 0 1 -1.22465e-16
    outer loop
      vertex 36.35 1.7 5.86602
      vertex 40.25 1.7 5
      vertex 36.35 1.7 5
    endloop
  endfacet
  facet normal -1 0 0
    outer loop
      vertex 40.25 5.6 5.86602
      vertex 40.25 5.6 5
      vertex 40.25 1.7 5.86602
    endloop
  endfacet
  facet normal -1 0 0
    outer loop
      vertex 40.25 1.7 5.86602
      vertex 40.25 5.6 5
      vertex 40.25 1.7 5
    endloop
  endfacet
  facet normal 0 -1 1.22465e-16
    outer loop
      vertex 40.25 5.6 5
      vertex 40.25 5.6 5.86602
      vertex 36.35 5.6 5.86602
    endloop
  endfacet
  facet normal 0 -1 1.22465e-16
    outer loop
      vertex 36.35 5.6 5
      vertex 40.25 5.6 5
      vertex 36.35 5.6 5.86602
    endloop
  endfacet
  facet normal 1 0 0
    outer loop
      vertex 41.975 10.75 5
      vertex 41.975 10.75 5.86602
      vertex 41.975 8.75 5.86602
    endloop
  endfacet
  facet normal 1 0 0
    outer loop
      vertex 41.975 8.75 5
      vertex 41.975 10.75 5
      vertex 41.975 8.75 5.86602
    endloop
  endfacet
  facet normal 0 1 -1.22465e-16
    outer loop
      vertex 43.175 8.75 5.86602
      vertex 43.175 8.75 5
      vertex 41.975 8.75 5.86602
    endloop
  endfacet
  facet normal 0 1 -1.22465e-16
    outer loop
      vertex 41.975 8.75 5.86602
      vertex 43.175 8.75 5
      vertex 41.975 8.75 5
    endloop
  endfacet
  facet normal -1 0 0
    outer loop
      vertex 43.175 10.75 5.86602
      vertex 43.175 10.75 5
      vertex 43.175 8.75 5.86602
    endloop
  endfacet
  facet normal -1 0 0
    outer loop
      vertex 43.175 8.75 5.86602
      vertex 43.175 10.75 5
      vertex 43.175 8.75 5
    endloop
  endfacet
  facet normal 0 -1 1.22465e-16
    outer loop
      vertex 43.175 10.75 5
      vertex 43.175 10.75 5.86602
      vertex 41.975 10.75 5.86602
    endloop
  endfacet
  facet normal 0 -1 1.22465e-16
    outer loop
      vertex 41.975 10.75 5
      vertex 43.175 10.75 5
      vertex 41.975 10.75 5.86602
    endloop
  endfacet
  facet normal 1 0 0
    outer loop
      vertex 43.4 10.75 5
      vertex 43.4 10.75 5.86602
      vertex 43.4 8.75 5.86602
    endloop
  endfacet
  facet normal 1 0 0
    outer loop
      vertex 43.4 8.75 5
      vertex 43.4 10.75 5
      vertex 43.4 8.75 5.86602
    endloop
  endfacet
  facet normal 0 1 -1.22465e-16
    outer loop
      vertex 44.6 8.75 5.86602
      vertex 44.6 8.75 5
      vertex 43.4 8.75 5.86602
    endloop
  endfacet
  facet normal 0 1 -1.22465e-16
    outer loop
      vertex 43.4 8.75 5.86602
      vertex 44.6 8.75 5
      vertex 43.4 8.75 5
    endloop
  endfacet
  facet normal -1 0 0
    outer loop
      vertex 44.6 10.75 5.86602
      vertex 44.6 10.75 5
      vertex 44.6 8.75 5.86602
    endloop
  endfacet
  facet normal -1 0 0
    outer loop
      vertex 44.6 8.75 5.86602
      vertex 44.6 10.75 5
      vertex 44.6 8.75 5
    endloop
  endfacet
  facet normal 0 -1 1.22465e-16
    outer loop
      vertex 44.6 10.75 5
      vertex 44.6 10.75 5.86602
      vertex 43.4 10.75 5.86602
    endloop
  endfacet
  facet normal 0 -1 1.22465e-16
    outer loop
      vertex 43.4 10.75 5
      vertex 44.6 10.75 5
      vertex 43.4 10.75 5.86602
    endloop
  endfacet
  facet normal 1 0 0
    outer loop
      vertex 57.1 8.1 -0.4
      vertex 57.1 0 -2
      vertex 57.1 18.5 -2
    endloop
  endfacet
  facet normal 1 0 0
    outer loop
      vertex 57.1 0 5
      vertex 57.1 0 -2
      vertex 57.1 2.5 0.75
    endloop
  endfacet
  facet normal 1 0 0
    outer loop
      vertex 57.1 8.1 -0.4
      vertex 57.1 6.2 2.4
      vertex 57.1 6.2 0.75
    endloop
  endfacet
  facet normal 1 0 0
    outer loop
      vertex 57.1 0 5
      vertex 57.1 2.5 0.75
      vertex 57.1 2.5 2.4
    endloop
  endfacet
  facet normal 1 0 0
    outer loop
      vertex 57.1 0 5
      vertex 57.1 2.5 2.4
      vertex 57.1 6.2 2.4
    endloop
  endfacet
  facet normal 1 0 0
    outer loop
      vertex 57.1 8.1 -0.4
      vertex 57.1 6.2 0.75
      vertex 57.1 2.5 0.75
    endloop
  endfacet
  facet normal 1 0 0
    outer loop
      vertex 57.1 2.5 0.75
      vertex 57.1 0 -2
      vertex 57.1 8.1 -0.4
    endloop
  endfacet
  facet normal 1 0 0
    outer loop
      vertex 57.1 18.5 5
      vertex 57.1 0 5
      vertex 57.1 8.1 2.4
    endloop
  endfacet
  facet normal 1 0 0
    outer loop
      vertex 57.1 18.5 5
      vertex 57.1 17.1 2.4
      vertex 57.1 18.5 -2
    endloop
  endfacet
  facet normal 1 0 0
    outer loop
      vertex 57.1 18.5 5
      vertex 57.1 8.1 2.4
      vertex 57.1 17.1 2.4
    endloop
  endfacet
  facet normal 1 0 0
    outer loop
      vertex 57.1 17.1 2.4
      vertex 57.1 17.1 -0.4
      vertex 57.1 18.5 -2
    endloop
  endfacet
  facet normal 1 0 0
    outer loop
      vertex 57.1 6.2 2.4
      vertex 57.1 8.1 2.4
      vertex 57.1 0 5
    endloop
  endfacet
  facet normal 1 0 0
    outer loop
      vertex 57.1 8.1 -0.4
      vertex 57.1 8.1 2.4
      vertex 57.1 6.2 2.4
    endloop
  endfacet
  facet normal 1 0 0
    outer loop
      vertex 57.1 17.1 -0.4
      vertex 57.1 8.1 -0.4
      vertex 57.1 18.5 -2
    endloop
  endfacet
  facet normal -0.309018 0.951056 0
    outer loop
      vertex 7.30902 -3.04894 0.3
      vertex 7.30902 -3.04894 -2
      vertex 6.4 -3.3443 0.3
    endloop
  endfacet
  facet normal -0.309018 0.951056 0
    outer loop
      vertex 7.30902 -3.04894 1.5
      vertex 6.19098 -3.41221 4.5
      vertex 7.30902 -3.04894 4.5
    endloop
  endfacet
  facet normal -0.309018 0.951056 0
    outer loop
      vertex 6.19098 -3.41221 -2
      vertex 6.19098 -3.41221 4.5
      vertex 6.4 -3.3443 1.5
    endloop
  endfacet
  facet normal -0.309018 0.951056 0
    outer loop
      vertex 6.19098 -3.41221 -2
      vertex 6.4 -3.3443 1.5
      vertex 6.4 -3.3443 0.3
    endloop
  endfacet
  facet normal -0.309018 0.951056 0
    outer loop
      vertex 6.19098 -3.41221 -2
      vertex 6.4 -3.3443 0.3
      vertex 7.30902 -3.04894 -2
    endloop
  endfacet
  facet normal -0.309018 0.951056 0
    outer loop
      vertex 6.4 -3.3443 1.5
      vertex 6.19098 -3.41221 4.5
      vertex 7.30902 -3.04894 1.5
    endloop
  endfacet
  facet normal 0 1 0
    outer loop
      vertex 7.30902 -3.04894 -2
      vertex 7.30902 -3.04894 0.3
      vertex 55.309 -3.04894 -2
    endloop
  endfacet
  facet normal 0 1 0
    outer loop
      vertex 43.1 -3.04894 -0.1
      vertex 7.30902 -3.04894 0.3
      vertex 43.1 -3.04894 0.3
    endloop
  endfacet
  facet normal 0 1 0
    outer loop
      vertex 55.309 -3.04894 -2
      vertex 7.30902 -3.04894 0.3
      vertex 43.1 -3.04894 -0.1
    endloop
  endfacet
  facet normal 0 1 0
    outer loop
      vertex 55.309 -3.04894 -2
      vertex 51.1 -3.04894 -0.1
      vertex 51.1 -3.04894 0.3
    endloop
  endfacet
  facet normal 0 1 0
    outer loop
      vertex 55.309 -3.04894 -2
      vertex 51.1 -3.04894 0.3
      vertex 54.6 -3.04894 0.3
    endloop
  endfacet
  facet normal 0 1 0
    outer loop
      vertex 7.30902 -3.04894 1.5
      vertex 43.1 -3.04894 2.3
      vertex 43.1 -3.04894 1.5
    endloop
  endfacet
  facet normal 0 1 0
    outer loop
      vertex 55.309 -3.04894 -2
      vertex 54.6 -3.04894 0.3
      vertex 54.6 -3.04894 1.5
    endloop
  endfacet
  facet normal 0 1 0
    outer loop
      vertex 54.6 -3.04894 1.5
      vertex 51.1 -3.04894 1.5
      vertex 51.1 -3.04894 2.3
    endloop
  endfacet
  facet normal 0 1 0
    outer loop
      vertex 54.6 -3.04894 1.5
      vertex 55.309 -3.04894 4.5
      vertex 55.309 -3.04894 -2
    endloop
  endfacet
  facet normal 0 1 0
    outer loop
      vertex 43.1 -3.04894 2.3
      vertex 7.30902 -3.04894 1.5
      vertex 7.30902 -3.04894 4.5
    endloop
  endfacet
  facet normal 0 1 0
    outer loop
      vertex 43.1 -3.04894 2.3
      vertex 7.30902 -3.04894 4.5
      vertex 51.1 -3.04894 2.3
    endloop
  endfacet
  facet normal 0 1 0
    outer loop
      vertex 51.1 -3.04894 2.3
      vertex 7.30902 -3.04894 4.5
      vertex 55.309 -3.04894 4.5
    endloop
  endfacet
  facet normal 0 1 0
    outer loop
      vertex 51.1 -3.04894 2.3
      vertex 55.309 -3.04894 4.5
      vertex 54.6 -3.04894 1.5
    endloop
  endfacet
  facet normal 0 1 0
    outer loop
      vertex 51.1 -3.04894 -0.1
      vertex 55.309 -3.04894 -2
      vertex 43.1 -3.04894 -0.1
    endloop
  endfacet
  facet normal 0 1.22465e-16 1
    outer loop
      vertex 51.1 -4 -0.1
      vertex 51.1 -3.04894 -0.1
      vertex 43.1 -3.04894 -0.1
    endloop
  endfacet
  facet normal 0 1.22465e-16 1
    outer loop
      vertex 43.1 -4 -0.1
      vertex 51.1 -4 -0.1
      vertex 43.1 -3.04894 -0.1
    endloop
  endfacet
  facet normal 0 -1 0
    outer loop
      vertex 43.1 -4 2.3
      vertex 55 -4 4.5
      vertex 7 -4 4.5
    endloop
  endfacet
  facet normal 0 -1 0
    outer loop
      vertex 7 -4 -2.86602
      vertex 55 -4 -2.86602
      vertex 7 -4 4.5
    endloop
  endfacet
  facet normal 0 -1 0
    outer loop
      vertex 43.1 -4 -0.1
      vertex 43.1 -4 2.3
      vertex 7 -4 4.5
    endloop
  endfacet
  facet normal 0 -1 0
    outer loop
      vertex 51.1 -4 2.3
      vertex 55 -4 4.5
      vertex 43.1 -4 2.3
    endloop
  endfacet
  facet normal 0 -1 0
    outer loop
      vertex 55 -4 -2.86602
      vertex 55 -4 4.5
      vertex 51.1 -4 2.3
    endloop
  endfacet
  facet normal 0 -1 0
    outer loop
      vertex 55 -4 -2.86602
      vertex 51.1 -4 2.3
      vertex 51.1 -4 -0.1
    endloop
  endfacet
  facet normal 0 -1 0
    outer loop
      vertex 55 -4 -2.86602
      vertex 43.1 -4 -0.1
      vertex 7 -4 4.5
    endloop
  endfacet
  facet normal 0 -1 0
    outer loop
      vertex 51.1 -4 -0.1
      vertex 43.1 -4 -0.1
      vertex 55 -4 -2.86602
    endloop
  endfacet
  facet normal 0 -1.22465e-16 -1
    outer loop
      vertex 51.1 -3.04894 2.3
      vertex 51.1 -4 2.3
      vertex 43.1 -3.04894 2.3
    endloop
  endfacet
  facet normal 0 -1.22465e-16 -1
    outer loop
      vertex 43.1 -3.04894 2.3
      vertex 51.1 -4 2.3
      vertex 43.1 -4 2.3
    endloop
  endfacet
  facet normal 0 -1.22465e-16 -1
    outer loop
      vertex 41.975 8.75 5
      vertex 56.1 0 5
      vertex 4.6 18.5 5
    endloop
  endfacet
  facet normal 0 -1.22465e-16 -1
    outer loop
      vertex 16.9 2.7 5
      vertex 56.1 0 5
      vertex 4.6 0 5
    endloop
  endfacet
  facet normal 0 -1.22465e-16 -1
    outer loop
      vertex 21.9 2.7 5
      vertex 56.1 0 5
      vertex 16.9 2.7 5
    endloop
  endfacet
  facet normal 0 -1.22465e-16 -1
    outer loop
      vertex 4.6 18.5 5
      vertex 16.9 2.7 5
      vertex 4.6 0 5
    endloop
  endfacet
  facet normal 0 -1.22465e-16 -1
    outer loop
      vertex 36.35 1.7 5
      vertex 56.1 0 5
      vertex 21.9 2.7 5
    endloop
  endfacet
  facet normal 0 -1.22465e-16 -1
    outer loop
      vertex 43.175 10.75 5
      vertex 43.4 10.75 5
      vertex 43.175 8.75 5
    endloop
  endfacet
  facet normal 0 -1.22465e-16 -1
    outer loop
      vertex 36.35 1.7 5
      vertex 21.9 5.7 5
      vertex 36.35 5.6 5
    endloop
  endfacet
  facet normal 0 -1.22465e-16 -1
    outer loop
      vertex 4.6 18.5 5
      vertex 16.9 5.7 5
      vertex 16.9 2.7 5
    endloop
  endfacet
  facet normal 0 -1.22465e-16 -1
    outer loop
      vertex 40.25 1.7 5
      vertex 56.1 0 5
      vertex 36.35 1.7 5
    endloop
  endfacet
  facet normal 0 -1.22465e-16 -1
    outer loop
      vertex 21.9 5.7 5
      vertex 36.35 1.7 5
      vertex 21.9 2.7 5
    endloop
  endfacet
  facet normal 0 -1.22465e-16 -1
    outer loop
      vertex 40.25 5.6 5
      vertex 56.1 0 5
      vertex 40.25 1.7 5
    endloop
  endfacet
  facet normal 0 -1.22465e-16 -1
    outer loop
      vertex 4.6 18.5 5
      vertex 56.1 0 5
      vertex 40.25 5.6 5
    endloop
  endfacet
  facet normal 0 -1.22465e-16 -1
    outer loop
      vertex 4.6 18.5 5
      vertex 40.25 5.6 5
      vertex 21.9 5.7 5
    endloop
  endfacet
  facet normal 0 -1.22465e-16 -1
    outer loop
      vertex 40.25 5.6 5
      vertex 36.35 5.6 5
      vertex 21.9 5.7 5
    endloop
  endfacet
  facet normal 0 -1.22465e-16 -1
    outer loop
      vertex 43.175 8.75 5
      vertex 56.1 0 5
      vertex 41.975 8.75 5
    endloop
  endfacet
  facet normal 0 -1.22465e-16 -1
    outer loop
      vertex 41.975 10.75 5
      vertex 41.975 8.75 5
      vertex 4.6 18.5 5
    endloop
  endfacet
  facet normal 0 -1.22465e-16 -1
    outer loop
      vertex 43.4 8.75 5
      vertex 56.1 0 5
      vertex 43.175 8.75 5
    endloop
  endfacet
  facet normal 0 -1.22465e-16 -1
    outer loop
      vertex 56.1 18.5 5
      vertex 43.175 10.75 5
      vertex 4.6 18.5 5
    endloop
  endfacet
  facet normal 0 -1.22465e-16 -1
    outer loop
      vertex 43.175 10.75 5
      vertex 41.975 10.75 5
      vertex 4.6 18.5 5
    endloop
  endfacet
  facet normal 0 -1.22465e-16 -1
    outer loop
      vertex 44.6 8.75 5
      vertex 56.1 0 5
      vertex 43.4 8.75 5
    endloop
  endfacet
  facet normal 0 -1.22465e-16 -1
    outer loop
      vertex 44.6 10.75 5
      vertex 56.1 18.5 5
      vertex 44.6 8.75 5
    endloop
  endfacet
  facet normal 0 -1.22465e-16 -1
    outer loop
      vertex 56.1 18.5 5
      vertex 56.1 0 5
      vertex 44.6 8.75 5
    endloop
  endfacet
  facet normal 0 -1.22465e-16 -1
    outer loop
      vertex 43.4 8.75 5
      vertex 43.175 8.75 5
      vertex 43.4 10.75 5
    endloop
  endfacet
  facet normal 0 -1.22465e-16 -1
    outer loop
      vertex 56.1 18.5 5
      vertex 44.6 10.75 5
      vertex 43.4 10.75 5
    endloop
  endfacet
  facet normal 0 -1.22465e-16 -1
    outer loop
      vertex 56.1 18.5 5
      vertex 43.4 10.75 5
      vertex 43.175 10.75 5
    endloop
  endfacet
  facet normal 0 -1.22465e-16 -1
    outer loop
      vertex 16.9 5.7 5
      vertex 4.6 18.5 5
      vertex 21.9 5.7 5
    endloop
  endfacet
  facet normal 0 1 -1.22465e-16
    outer loop
      vertex 57.1 2.5 2.4
      vertex 57.1 2.5 0.75
      vertex 56.1 2.5 2.4
    endloop
  endfacet
  facet normal 0 1 -1.22465e-16
    outer loop
      vertex 56.1 2.5 2.4
      vertex 57.1 2.5 0.75
      vertex 56.1 2.5 0.75
    endloop
  endfacet
  facet normal 0 1.22465e-16 1
    outer loop
      vertex 57.1 2.5 0.75
      vertex 57.1 6.2 0.75
      vertex 56.1 6.2 0.75
    endloop
  endfacet
  facet normal 0 1.22465e-16 1
    outer loop
      vertex 56.1 2.5 0.75
      vertex 57.1 2.5 0.75
      vertex 56.1 6.2 0.75
    endloop
  endfacet
  facet normal 0 -1.22465e-16 -1
    outer loop
      vertex 57.1 6.2 2.4
      vertex 57.1 2.5 2.4
      vertex 56.1 6.2 2.4
    endloop
  endfacet
  facet normal 0 -1.22465e-16 -1
    outer loop
      vertex 56.1 6.2 2.4
      vertex 57.1 2.5 2.4
      vertex 56.1 2.5 2.4
    endloop
  endfacet
  facet normal 0 -1 1.22465e-16
    outer loop
      vertex 57.1 6.2 0.75
      vertex 57.1 6.2 2.4
      vertex 56.1 6.2 2.4
    endloop
  endfacet
  facet normal 0 -1 1.22465e-16
    outer loop
      vertex 56.1 6.2 0.75
      vertex 57.1 6.2 0.75
      vertex 56.1 6.2 2.4
    endloop
  endfacet
  facet normal 0 1 -1.22465e-16
    outer loop
      vertex 57.1 8.1 2.4
      vertex 57.1 8.1 -0.4
      vertex 56.1 8.1 2.4
    endloop
  endfacet
  facet normal 0 1 -1.22465e-16
    outer loop
      vertex 56.1 8.1 2.4
      vertex 57.1 8.1 -0.4
      vertex 56.1 8.1 -0.4
    endloop
  endfacet
  facet normal 0 1.22465e-16 1
    outer loop
      vertex 57.1 8.1 -0.4
      vertex 57.1 17.1 -0.4
      vertex 56.1 17.1 -0.4
    endloop
  endfacet
  facet normal 0 1.22465e-16 1
    outer loop
      vertex 56.1 8.1 -0.4
      vertex 57.1 8.1 -0.4
      vertex 56.1 17.1 -0.4
    endloop
  endfacet
  facet normal 0 -1.22465e-16 -1
    outer loop
      vertex 57.1 17.1 2.4
      vertex 57.1 8.1 2.4
      vertex 56.1 17.1 2.4
    endloop
  endfacet
  facet normal 0 -1.22465e-16 -1
    outer loop
      vertex 56.1 17.1 2.4
      vertex 57.1 8.1 2.4
      vertex 56.1 8.1 2.4
    endloop
  endfacet
  facet normal 0 -1 1.22465e-16
    outer loop
      vertex 57.1 17.1 -0.4
      vertex 57.1 17.1 2.4
      vertex 56.1 17.1 2.4
    endloop
  endfacet
  facet normal 0 -1 1.22465e-16
    outer loop
      vertex 56.1 17.1 -0.4
      vertex 57.1 17.1 -0.4
      vertex 56.1 17.1 2.4
    endloop
  endfacet
  facet normal -0.861693 0.279981 0.423198
    outer loop
      vertex 9.52977 22.8472 3.4
      vertex 9.23915 21.9528 3.4
      vertex 9.76489 22.5236 4.09282
    endloop
  endfacet
  facet normal -0.861693 0.279982 0.423197
    outer loop
      vertex 9.76489 22.5236 4.09282
      vertex 9.23915 21.9528 3.4
      vertex 9.61958 22.0764 4.09282
    endloop
  endfacet
  facet normal -0.951057 0.309017 0
    outer loop
      vertex 9.23915 21.9528 -0.6
      vertex 9.23915 21.9528 3.4
      vertex 9.52977 22.8472 -0.6
    endloop
  endfacet
  facet normal -0.951057 0.309017 0
    outer loop
      vertex 9.52977 22.8472 -0.6
      vertex 9.23915 21.9528 3.4
      vertex 9.52977 22.8472 3.4
    endloop
  endfacet
  facet normal -0.861693 0.279981 -0.423197
    outer loop
      vertex 9.61958 22.0764 -1.29282
      vertex 9.23915 21.9528 -0.6
      vertex 9.52977 22.8472 -0.6
    endloop
  endfacet
  facet normal -2.01181e-16 0.906037 0.423198
    outer loop
      vertex 9.52977 22.8472 3.4
      vertex 9.76489 22.5236 4.09282
      vertex 50.4702 22.8472 3.4
    endloop
  endfacet
  facet normal -2.01181e-16 0.906037 0.423198
    outer loop
      vertex 50.4702 22.8472 3.4
      vertex 9.76489 22.5236 4.09282
      vertex 50.2351 22.5236 4.09282
    endloop
  endfacet
  facet normal 0.861692 0.279982 0.423198
    outer loop
      vertex 50.4702 22.8472 3.4
      vertex 50.2351 22.5236 4.09282
      vertex 50.3804 22.0764 4.09282
    endloop
  endfacet
  facet normal 0.861693 0.279981 0.423197
    outer loop
      vertex 50.4702 22.8472 3.4
      vertex 50.3804 22.0764 4.09282
      vertex 50.7608 21.9528 3.4
    endloop
  endfacet
  facet normal 1 2.22045e-16 0
    outer loop
      vertex 16.2862 20.7764 4.09282
      vertex 16.2862 20.0264 4.09282
      vertex 16.2862 20.0264 -1.29282
    endloop
  endfacet
  facet normal 1 2.22045e-16 0
    outer loop
      vertex 16.2862 20.7764 -1.29282
      vertex 16.2862 20.7764 4.09282
      vertex 16.2862 20.0264 -1.29282
    endloop
  endfacet
  facet normal 0.587785 0.809017 0
    outer loop
      vertex 16.6667 19.75 4.09282
      vertex 16.6667 19.75 -1.29282
      vertex 16.2862 20.0264 4.09282
    endloop
  endfacet
  facet normal 0.587785 0.809017 0
    outer loop
      vertex 16.2862 20.0264 4.09282
      vertex 16.6667 19.75 -1.29282
      vertex 16.2862 20.0264 -1.29282
    endloop
  endfacet
  facet normal -2.22045e-16 1 0
    outer loop
      vertex 43.3333 19.75 4.09282
      vertex 43.3333 19.75 -1.29282
      vertex 16.6667 19.75 4.09282
    endloop
  endfacet
  facet normal -2.22045e-16 1 0
    outer loop
      vertex 16.6667 19.75 4.09282
      vertex 43.3333 19.75 -1.29282
      vertex 16.6667 19.75 -1.29282
    endloop
  endfacet
  facet normal -0.587785 0.809017 0
    outer loop
      vertex 43.7138 20.0264 4.09282
      vertex 43.7138 20.0264 -1.29282
      vertex 43.3333 19.75 4.09282
    endloop
  endfacet
  facet normal -0.587785 0.809017 0
    outer loop
      vertex 43.3333 19.75 4.09282
      vertex 43.7138 20.0264 -1.29282
      vertex 43.3333 19.75 -1.29282
    endloop
  endfacet
  facet normal -1 -2.22045e-16 0
    outer loop
      vertex 43.7138 20.0264 4.09282
      vertex 43.7138 20.7764 4.09282
      vertex 43.7138 20.0264 -1.29282
    endloop
  endfacet
  facet normal -1 -2.22045e-16 0
    outer loop
      vertex 43.7138 20.0264 -1.29282
      vertex 43.7138 20.7764 4.09282
      vertex 43.7138 20.7764 -1.29282
    endloop
  endfacet
  facet normal -0.951056 -0.309018 0
    outer loop
      vertex 43.7138 20.7764 4.09282
      vertex 43.5684 21.2236 4.09282
      vertex 43.7138 20.7764 -1.29282
    endloop
  endfacet
  facet normal -0.951056 -0.309018 0
    outer loop
      vertex 43.7138 20.7764 -1.29282
      vertex 43.5684 21.2236 4.09282
      vertex 43.5684 21.2236 -1.29282
    endloop
  endfacet
  facet normal 2.22045e-16 -1 0
    outer loop
      vertex 43.5684 21.2236 -1.29282
      vertex 43.5684 21.2236 4.09282
      vertex 16.4316 21.2236 4.09282
    endloop
  endfacet
  facet normal 2.22045e-16 -1 0
    outer loop
      vertex 16.4316 21.2236 -1.29282
      vertex 43.5684 21.2236 -1.29282
      vertex 16.4316 21.2236 4.09282
    endloop
  endfacet
  facet normal 0.951056 -0.309018 0
    outer loop
      vertex 16.4316 21.2236 -1.29282
      vertex 16.4316 21.2236 4.09282
      vertex 16.2862 20.7764 4.09282
    endloop
  endfacet
  facet normal 0.951056 -0.309018 0
    outer loop
      vertex 16.2862 20.7764 -1.29282
      vertex 16.4316 21.2236 -1.29282
      vertex 16.2862 20.7764 4.09282
    endloop
  endfacet
  facet normal 0.951057 0.309017 0
    outer loop
      vertex 50.7608 21.9528 -0.6
      vertex 50.4702 22.8472 -0.6
      vertex 50.4702 22.8472 3.4
    endloop
  endfacet
  facet normal 0.951057 0.309017 0
    outer loop
      vertex 50.7608 21.9528 3.4
      vertex 50.7608 21.9528 -0.6
      vertex 50.4702 22.8472 3.4
    endloop
  endfacet
  facet normal 0.861693 0.279981 -0.423198
    outer loop
      vertex 50.7608 21.9528 -0.6
      vertex 50.2351 22.5236 -1.29282
      vertex 50.4702 22.8472 -0.6
    endloop
  endfacet
  facet normal 0.861693 0.279982 -0.423197
    outer loop
      vertex 50.3804 22.0764 -1.29282
      vertex 50.2351 22.5236 -1.29282
      vertex 50.7608 21.9528 -0.6
    endloop
  endfacet
  facet normal -2.01181e-16 0.906037 -0.423198
    outer loop
      vertex 9.52977 22.8472 -0.6
      vertex 50.4702 22.8472 -0.6
      vertex 9.76489 22.5236 -1.29282
    endloop
  endfacet
  facet normal -2.01181e-16 0.906037 -0.423198
    outer loop
      vertex 9.76489 22.5236 -1.29282
      vertex 50.4702 22.8472 -0.6
      vertex 50.2351 22.5236 -1.29282
    endloop
  endfacet
  facet normal -0.861692 0.279982 -0.423198
    outer loop
      vertex 9.61958 22.0764 -1.29282
      vertex 9.52977 22.8472 -0.6
      vertex 9.76489 22.5236 -1.29282
    endloop
  endfacet
  facet normal -0.279981 0.861693 -0.423197
    outer loop
      vertex 6.59549 -3.70611 -2.86602
      vertex 6.19098 -3.41221 -2
      vertex 7.30902 -3.04894 -2
    endloop
  endfacet
  facet normal -0.27998 0.861693 -0.423198
    outer loop
      vertex 7.15451 -3.52447 -2.86602
      vertex 6.59549 -3.70611 -2.86602
      vertex 7.30902 -3.04894 -2
    endloop
  endfacet
  facet normal 0 0.876551 -0.481309
    outer loop
      vertex 7.15451 -3.52447 -2.86602
      vertex 7.30902 -3.04894 -2
      vertex 55.1545 -3.52447 -2.86602
    endloop
  endfacet
  facet normal 0 0.876551 -0.481309
    outer loop
      vertex 55.1545 -3.52447 -2.86602
      vertex 7.30902 -3.04894 -2
      vertex 55.309 -3.04894 -2
    endloop
  endfacet
  facet normal 0 0.876551 0.481309
    outer loop
      vertex 7.15451 -3.52447 5.36602
      vertex 55.1545 -3.52447 5.36602
      vertex 7.30902 -3.04894 4.5
    endloop
  endfacet
  facet normal 0 0.876551 0.481309
    outer loop
      vertex 7.30902 -3.04894 4.5
      vertex 55.1545 -3.52447 5.36602
      vertex 55.309 -3.04894 4.5
    endloop
  endfacet
  facet normal -0.279981 0.861692 0.423198
    outer loop
      vertex 7.30902 -3.04894 4.5
      vertex 6.19098 -3.41221 4.5
      vertex 7.15451 -3.52447 5.36602
    endloop
  endfacet
  facet normal -0.906037 0 0.423198
    outer loop
      vertex 6.19098 -24.5878 4.5
      vertex 6.59549 -24.2939 5.36602
      vertex 6.19098 -3.41221 4.5
    endloop
  endfacet
  facet normal -0.906037 0 0.423198
    outer loop
      vertex 6.19098 -3.41221 4.5
      vertex 6.59549 -24.2939 5.36602
      vertex 6.59549 -3.70611 5.36602
    endloop
  endfacet
  facet normal -1 0 0
    outer loop
      vertex 6.19098 -24.5878 -2
      vertex 6.19098 -24.5878 4.5
      vertex 6.19098 -3.41221 -2
    endloop
  endfacet
  facet normal -1 0 0
    outer loop
      vertex 6.19098 -3.41221 -2
      vertex 6.19098 -24.5878 4.5
      vertex 6.19098 -3.41221 4.5
    endloop
  endfacet
  facet normal -0.279981 0.861693 0.423197
    outer loop
      vertex 7.15451 -3.52447 5.36602
      vertex 6.19098 -3.41221 4.5
      vertex 6.59549 -3.70611 5.36602
    endloop
  endfacet
  facet normal -0.906037 0 -0.423198
    outer loop
      vertex 6.19098 -24.5878 -2
      vertex 6.19098 -3.41221 -2
      vertex 6.59549 -24.2939 -2.86602
    endloop
  endfacet
  facet normal -0.906037 0 -0.423198
    outer loop
      vertex 6.59549 -24.2939 -2.86602
      vertex 6.19098 -3.41221 -2
      vertex 6.59549 -3.70611 -2.86602
    endloop
  endfacet
  facet normal 0.809017 0.587785 0
    outer loop
      vertex 56 -4 -2
      vertex 55.309 -3.04894 -2
      vertex 55.309 -3.04894 4.5
    endloop
  endfacet
  facet normal 0.809017 0.587785 0
    outer loop
      vertex 56 -4 4.5
      vertex 56 -4 -2
      vertex 55.309 -3.04894 4.5
    endloop
  endfacet
  facet normal 0.732999 0.532555 -0.423198
    outer loop
      vertex 56 -4 -2
      vertex 55.1545 -3.52447 -2.86602
      vertex 55.309 -3.04894 -2
    endloop
  endfacet
  facet normal 0.733 0.532555 0.423198
    outer loop
      vertex 56 -4 4.5
      vertex 55.309 -3.04894 4.5
      vertex 55.5 -4 5.36602
    endloop
  endfacet
  facet normal 0.732999 0.532556 0.423199
    outer loop
      vertex 55.309 -3.04894 4.5
      vertex 55.1545 -3.52447 5.36602
      vertex 55.5 -4 5.36602
    endloop
  endfacet
  facet normal -1 0 0
    outer loop
      vertex 55 -4 4.5
      vertex 55 -4 -2.86602
      vertex 55 -24 4.5
    endloop
  endfacet
  facet normal -1 0 0
    outer loop
      vertex 55 -24 4.5
      vertex 55 -4 -2.86602
      vertex 55 -24 -2.86602
    endloop
  endfacet
  facet normal 0 0 -1
    outer loop
      vertex 55 -24 -2.86602
      vertex 7.15451 -24.4755 -2.86602
      vertex 7 -24 -2.86602
    endloop
  endfacet
  facet normal 0 0 -1
    outer loop
      vertex 7 -4 -2.86602
      vertex 6.59549 -3.70611 -2.86602
      vertex 7.15451 -3.52447 -2.86602
    endloop
  endfacet
  facet normal 0 0 -1
    outer loop
      vertex 55 -4 -2.86602
      vertex 55.1545 -3.52447 -2.86602
      vertex 55.5 -4 -2.86602
    endloop
  endfacet
  facet normal 0 0 -1
    outer loop
      vertex 55 -24 -2.86602
      vertex 55.5 -4 -2.86602
      vertex 55.5 -24 -2.86602
    endloop
  endfacet
  facet normal 0 0 -1
    outer loop
      vertex 7.15451 -24.4755 -2.86602
      vertex 55.5 -24 -2.86602
      vertex 55.1545 -24.4755 -2.86602
    endloop
  endfacet
  facet normal 0 0 -1
    outer loop
      vertex 7 -24 -2.86602
      vertex 6.59549 -3.70611 -2.86602
      vertex 7 -4 -2.86602
    endloop
  endfacet
  facet normal 0 0 -1
    outer loop
      vertex 6.59549 -24.2939 -2.86602
      vertex 6.59549 -3.70611 -2.86602
      vertex 7 -24 -2.86602
    endloop
  endfacet
  facet normal 0 0 -1
    outer loop
      vertex 6.59549 -24.2939 -2.86602
      vertex 7 -24 -2.86602
      vertex 7.15451 -24.4755 -2.86602
    endloop
  endfacet
  facet normal 0 0 -1
    outer loop
      vertex 55 -4 -2.86602
      vertex 55.5 -4 -2.86602
      vertex 55 -24 -2.86602
    endloop
  endfacet
  facet normal 0 0 -1
    outer loop
      vertex 7.15451 -24.4755 -2.86602
      vertex 55 -24 -2.86602
      vertex 55.5 -24 -2.86602
    endloop
  endfacet
  facet normal 0 0 -1
    outer loop
      vertex 7 -4 -2.86602
      vertex 7.15451 -3.52447 -2.86602
      vertex 55.1545 -3.52447 -2.86602
    endloop
  endfacet
  facet normal 0 0 -1
    outer loop
      vertex 7 -4 -2.86602
      vertex 55.1545 -3.52447 -2.86602
      vertex 55 -4 -2.86602
    endloop
  endfacet
  facet normal 1 0 0
    outer loop
      vertex 7 -4 -2.86602
      vertex 7 -4 4.5
      vertex 7 -24 4.5
    endloop
  endfacet
  facet normal 1 0 0
    outer loop
      vertex 7 -24 -2.86602
      vertex 7 -4 -2.86602
      vertex 7 -24 4.5
    endloop
  endfacet
  facet normal 0 0 -1
    outer loop
      vertex 55 -4 4.5
      vertex 55 -24 4.5
      vertex 7 -4 4.5
    endloop
  endfacet
  facet normal 0 0 -1
    outer loop
      vertex 7 -4 4.5
      vertex 55 -24 4.5
      vertex 7 -24 4.5
    endloop
  endfacet
  facet normal -2.22045e-16 1 0
    outer loop
      vertex 9.52977 22.8472 -0.6
      vertex 9.52977 22.8472 3.4
      vertex 50.4702 22.8472 -0.6
    endloop
  endfacet
  facet normal -2.22045e-16 1 0
    outer loop
      vertex 50.4702 22.8472 -0.6
      vertex 9.52977 22.8472 3.4
      vertex 50.4702 22.8472 3.4
    endloop
  endfacet
  facet normal 0.732999 0.532556 -0.423197
    outer loop
      vertex 55.5 -4 -2.86602
      vertex 55.1545 -3.52447 -2.86602
      vertex 56 -4 -2
    endloop
  endfacet
  facet normal 0 0 1
    outer loop
      vertex 6.59549 -3.70611 5.36602
      vertex 6.59549 -24.2939 5.36602
      vertex 7.15451 -24.4755 5.36602
    endloop
  endfacet
  facet normal 0 0 1
    outer loop
      vertex 55.5 -24 5.36602
      vertex 6.59549 -3.70611 5.36602
      vertex 55.1545 -24.4755 5.36602
    endloop
  endfacet
  facet normal 0 0 1
    outer loop
      vertex 55.1545 -24.4755 5.36602
      vertex 6.59549 -3.70611 5.36602
      vertex 7.15451 -24.4755 5.36602
    endloop
  endfacet
  facet normal 0 0 1
    outer loop
      vertex 55.5 -4 5.36602
      vertex 6.59549 -3.70611 5.36602
      vertex 55.5 -24 5.36602
    endloop
  endfacet
  facet normal 0 0 1
    outer loop
      vertex 55.1545 -3.52447 5.36602
      vertex 6.59549 -3.70611 5.36602
      vertex 55.5 -4 5.36602
    endloop
  endfacet
  facet normal 0 0 1
    outer loop
      vertex 7.15451 -3.52447 5.36602
      vertex 6.59549 -3.70611 5.36602
      vertex 55.1545 -3.52447 5.36602
    endloop
  endfacet
  facet normal -0.27998 -0.861693 0.423198
    outer loop
      vertex 7.15451 -24.4755 5.36602
      vertex 6.59549 -24.2939 5.36602
      vertex 7.30902 -24.9511 4.5
    endloop
  endfacet
  facet normal -0.279981 -0.861693 0.423197
    outer loop
      vertex 6.59549 -24.2939 5.36602
      vertex 6.19098 -24.5878 4.5
      vertex 7.30902 -24.9511 4.5
    endloop
  endfacet
  facet normal -0.309018 -0.951056 0
    outer loop
      vertex 6.19098 -24.5878 4.5
      vertex 6.19098 -24.5878 -2
      vertex 7.30902 -24.9511 -2
    endloop
  endfacet
  facet normal -0.309018 -0.951056 0
    outer loop
      vertex 7.30902 -24.9511 4.5
      vertex 6.19098 -24.5878 4.5
      vertex 7.30902 -24.9511 -2
    endloop
  endfacet
  facet normal -0.279981 -0.861692 -0.423198
    outer loop
      vertex 7.30902 -24.9511 -2
      vertex 6.19098 -24.5878 -2
      vertex 7.15451 -24.4755 -2.86602
    endloop
  endfacet
  facet normal -0.279981 -0.861693 -0.423197
    outer loop
      vertex 7.15451 -24.4755 -2.86602
      vertex 6.19098 -24.5878 -2
      vertex 6.59549 -24.2939 -2.86602
    endloop
  endfacet
  facet normal 1 0 0
    outer loop
      vertex 56 -24 4.5
      vertex 56 -24 -2
      vertex 56 -4 -2
    endloop
  endfacet
  facet normal 1 0 0
    outer loop
      vertex 56 -4 4.5
      vertex 56 -24 4.5
      vertex 56 -4 -2
    endloop
  endfacet
  facet normal 0.866025 0 -0.5
    outer loop
      vertex 56 -24 -2
      vertex 55.5 -24 -2.86602
      vertex 55.5 -4 -2.86602
    endloop
  endfacet
  facet normal 0.866025 0 -0.5
    outer loop
      vertex 56 -4 -2
      vertex 56 -24 -2
      vertex 55.5 -4 -2.86602
    endloop
  endfacet
  facet normal 0.866025 0 0.5
    outer loop
      vertex 55.5 -4 5.36602
      vertex 55.5 -24 5.36602
      vertex 56 -24 4.5
    endloop
  endfacet
  facet normal 0.866025 0 0.5
    outer loop
      vertex 56 -4 4.5
      vertex 55.5 -4 5.36602
      vertex 56 -24 4.5
    endloop
  endfacet
  facet normal 0 1 0
    outer loop
      vertex 55 -24 4.5
      vertex 55 -24 -2.86602
      vertex 7 -24 4.5
    endloop
  endfacet
  facet normal 0 1 0
    outer loop
      vertex 7 -24 4.5
      vertex 55 -24 -2.86602
      vertex 7 -24 -2.86602
    endloop
  endfacet
  facet normal 0 -0.876551 -0.481309
    outer loop
      vertex 7.30902 -24.9511 -2
      vertex 7.15451 -24.4755 -2.86602
      vertex 55.1545 -24.4755 -2.86602
    endloop
  endfacet
  facet normal 0 -0.876551 -0.481309
    outer loop
      vertex 55.309 -24.9511 -2
      vertex 7.30902 -24.9511 -2
      vertex 55.1545 -24.4755 -2.86602
    endloop
  endfacet
  facet normal 0.732999 -0.532556 -0.423199
    outer loop
      vertex 55.309 -24.9511 -2
      vertex 55.1545 -24.4755 -2.86602
      vertex 55.5 -24 -2.86602
    endloop
  endfacet
  facet normal 0.733 -0.532555 -0.423198
    outer loop
      vertex 56 -24 -2
      vertex 55.309 -24.9511 -2
      vertex 55.5 -24 -2.86602
    endloop
  endfacet
  facet normal 0.732999 -0.532556 0.423197
    outer loop
      vertex 55.5 -24 5.36602
      vertex 55.1545 -24.4755 5.36602
      vertex 56 -24 4.5
    endloop
  endfacet
  facet normal 0.732999 -0.532555 0.423198
    outer loop
      vertex 56 -24 4.5
      vertex 55.1545 -24.4755 5.36602
      vertex 55.309 -24.9511 4.5
    endloop
  endfacet
  facet normal 0 -0.876551 0.481309
    outer loop
      vertex 55.1545 -24.4755 5.36602
      vertex 7.15451 -24.4755 5.36602
      vertex 7.30902 -24.9511 4.5
    endloop
  endfacet
  facet normal 0 -0.876551 0.481309
    outer loop
      vertex 55.309 -24.9511 4.5
      vertex 55.1545 -24.4755 5.36602
      vertex 7.30902 -24.9511 4.5
    endloop
  endfacet
  facet normal 0 -1 0
    outer loop
      vertex 9.61958 -24.9511 -1.29282
      vertex 7.30902 -24.9511 -2
      vertex 55.309 -24.9511 -2
    endloop
  endfacet
  facet normal 0 -1 0
    outer loop
      vertex 50.3804 -24.9511 -1.29282
      vertex 9.61958 -24.9511 -1.29282
      vertex 55.309 -24.9511 -2
    endloop
  endfacet
  facet normal 0 -1 0
    outer loop
      vertex 7.30902 -24.9511 4.5
      vertex 7.30902 -24.9511 -2
      vertex 9.23915 -24.9511 -0.6
    endloop
  endfacet
  facet normal 0 -1 0
    outer loop
      vertex 7.30902 -24.9511 4.5
      vertex 9.23915 -24.9511 -0.6
      vertex 9.23915 -24.9511 3.4
    endloop
  endfacet
  facet normal 0 -1 0
    outer loop
      vertex 7.30902 -24.9511 4.5
      vertex 9.23915 -24.9511 3.4
      vertex 9.61958 -24.9511 4.09282
    endloop
  endfacet
  facet normal 0 -1 0
    outer loop
      vertex 55.309 -24.9511 4.5
      vertex 50.3804 -24.9511 4.09282
      vertex 55.309 -24.9511 -2
    endloop
  endfacet
  facet normal 0 -1 0
    outer loop
      vertex 55.309 -24.9511 4.5
      vertex 7.30902 -24.9511 4.5
      vertex 50.3804 -24.9511 4.09282
    endloop
  endfacet
  facet normal 0 -1 0
    outer loop
      vertex 50.3804 -24.9511 4.09282
      vertex 50.7608 -24.9511 3.4
      vertex 55.309 -24.9511 -2
    endloop
  endfacet
  facet normal 0 -1 0
    outer loop
      vertex 50.7608 -24.9511 3.4
      vertex 50.7608 -24.9511 -0.6
      vertex 55.309 -24.9511 -2
    endloop
  endfacet
  facet normal 0 -1 0
    outer loop
      vertex 50.7608 -24.9511 -0.6
      vertex 50.3804 -24.9511 -1.29282
      vertex 55.309 -24.9511 -2
    endloop
  endfacet
  facet normal 0 -1 0
    outer loop
      vertex 9.23915 -24.9511 -0.6
      vertex 7.30902 -24.9511 -2
      vertex 9.61958 -24.9511 -1.29282
    endloop
  endfacet
  facet normal 0 -1 0
    outer loop
      vertex 9.61958 -24.9511 4.09282
      vertex 50.3804 -24.9511 4.09282
      vertex 7.30902 -24.9511 4.5
    endloop
  endfacet
  facet normal 0.809017 -0.587785 0
    outer loop
      vertex 55.309 -24.9511 4.5
      vertex 55.309 -24.9511 -2
      vertex 56 -24 -2
    endloop
  endfacet
  facet normal 0.809017 -0.587785 0
    outer loop
      vertex 56 -24 4.5
      vertex 55.309 -24.9511 4.5
      vertex 56 -24 -2
    endloop
  endfacet
  facet normal -1 -2.22045e-16 0
    outer loop
      vertex 9.23915 -24.9511 -0.6
      vertex 9.23916 -27.3472 -0.6
      vertex 9.23915 -24.9511 3.4
    endloop
  endfacet
  facet normal -1 -2.22045e-16 0
    outer loop
      vertex 9.23915 -24.9511 3.4
      vertex 9.23916 -27.3472 -0.6
      vertex 9.23916 -27.3472 3.4
    endloop
  endfacet
  facet normal -0.876552 -1.94634e-16 -0.481308
    outer loop
      vertex 9.23915 -24.9511 -0.6
      vertex 9.61958 -24.9511 -1.29282
      vertex 9.23916 -27.3472 -0.6
    endloop
  endfacet
  facet normal -0.876552 -1.94634e-16 -0.481308
    outer loop
      vertex 9.23916 -27.3472 -0.6
      vertex 9.61958 -24.9511 -1.29282
      vertex 9.61958 -27.2236 -1.29282
    endloop
  endfacet
  facet normal 0 0 -1
    outer loop
      vertex 43.3333 -26.55 -1.29282
      vertex 50.3804 -24.9511 -1.29282
      vertex 50.3804 -27.2236 -1.29282
    endloop
  endfacet
  facet normal 0 0 -1
    outer loop
      vertex 9.61958 -27.2236 -1.29282
      vertex 50.3804 -27.2236 -1.29282
      vertex 50 -27.5 -1.29282
    endloop
  endfacet
  facet normal 0 0 -1
    outer loop
      vertex 9.61958 -27.2236 -1.29282
      vertex 50 -27.5 -1.29282
      vertex 10 -27.5 -1.29282
    endloop
  endfacet
  facet normal 0 0 -1
    outer loop
      vertex 9.61958 -24.9511 -1.29282
      vertex 16.2862 -25.5236 -1.29282
      vertex 9.61958 -27.2236 -1.29282
    endloop
  endfacet
  facet normal 0 0 -1
    outer loop
      vertex 16.4316 -25.0764 -1.29282
      vertex 50.3804 -24.9511 -1.29282
      vertex 43.5684 -25.0764 -1.29282
    endloop
  endfacet
  facet normal 0 0 -1
    outer loop
      vertex 16.2862 -25.5236 -1.29282
      vertex 16.2862 -26.2736 -1.29282
      vertex 9.61958 -27.2236 -1.29282
    endloop
  endfacet
  facet normal 0 0 -1
    outer loop
      vertex 16.2862 -26.2736 -1.29282
      vertex 16.6667 -26.55 -1.29282
      vertex 9.61958 -27.2236 -1.29282
    endloop
  endfacet
  facet normal 0 0 -1
    outer loop
      vertex 43.7138 -26.2736 -1.29282
      vertex 50.3804 -24.9511 -1.29282
      vertex 43.3333 -26.55 -1.29282
    endloop
  endfacet
  facet normal 0 0 -1
    outer loop
      vertex 9.61958 -27.2236 -1.29282
      vertex 43.3333 -26.55 -1.29282
      vertex 50.3804 -27.2236 -1.29282
    endloop
  endfacet
  facet normal 0 0 -1
    outer loop
      vertex 43.7138 -25.5236 -1.29282
      vertex 50.3804 -24.9511 -1.29282
      vertex 43.7138 -26.2736 -1.29282
    endloop
  endfacet
  facet normal 0 0 -1
    outer loop
      vertex 43.5684 -25.0764 -1.29282
      vertex 50.3804 -24.9511 -1.29282
      vertex 43.7138 -25.5236 -1.29282
    endloop
  endfacet
  facet normal 0 0 -1
    outer loop
      vertex 9.61958 -24.9511 -1.29282
      vertex 50.3804 -24.9511 -1.29282
      vertex 16.4316 -25.0764 -1.29282
    endloop
  endfacet
  facet normal 0 0 -1
    outer loop
      vertex 9.61958 -24.9511 -1.29282
      vertex 16.4316 -25.0764 -1.29282
      vertex 16.2862 -25.5236 -1.29282
    endloop
  endfacet
  facet normal 0 0 -1
    outer loop
      vertex 43.3333 -26.55 -1.29282
      vertex 9.61958 -27.2236 -1.29282
      vertex 16.6667 -26.55 -1.29282
    endloop
  endfacet
  facet normal 0.876552 1.94634e-16 -0.481308
    outer loop
      vertex 50.3804 -27.2236 -1.29282
      vertex 50.3804 -24.9511 -1.29282
      vertex 50.7608 -24.9511 -0.6
    endloop
  endfacet
  facet normal 0.876552 1.94634e-16 -0.481308
    outer loop
      vertex 50.7608 -27.3472 -0.6
      vertex 50.3804 -27.2236 -1.29282
      vertex 50.7608 -24.9511 -0.6
    endloop
  endfacet
  facet normal 1 2.22045e-16 0
    outer loop
      vertex 50.7608 -27.3472 -0.6
      vertex 50.7608 -24.9511 -0.6
      vertex 50.7608 -24.9511 3.4
    endloop
  endfacet
  facet normal 1 2.22045e-16 0
    outer loop
      vertex 50.7608 -27.3472 3.4
      vertex 50.7608 -27.3472 -0.6
      vertex 50.7608 -24.9511 3.4
    endloop
  endfacet
  facet normal 0.876552 1.94634e-16 0.481308
    outer loop
      vertex 50.7608 -24.9511 3.4
      vertex 50.3804 -24.9511 4.09282
      vertex 50.3804 -27.2236 4.09282
    endloop
  endfacet
  facet normal 0.876552 1.94634e-16 0.481308
    outer loop
      vertex 50.7608 -27.3472 3.4
      vertex 50.7608 -24.9511 3.4
      vertex 50.3804 -27.2236 4.09282
    endloop
  endfacet
  facet normal 0 0 1
    outer loop
      vertex 16.2862 -26.2736 4.09282
      vertex 9.61958 -24.9511 4.09282
      vertex 9.61958 -27.2236 4.09282
    endloop
  endfacet
  facet normal 0 0 1
    outer loop
      vertex 50.3804 -27.2236 4.09282
      vertex 50.3804 -24.9511 4.09282
      vertex 50 -27.5 4.09282
    endloop
  endfacet
  facet normal 0 0 1
    outer loop
      vertex 16.6667 -26.55 4.09282
      vertex 16.2862 -26.2736 4.09282
      vertex 9.61958 -27.2236 4.09282
    endloop
  endfacet
  facet normal 0 0 1
    outer loop
      vertex 16.2862 -25.5236 4.09282
      vertex 9.61958 -24.9511 4.09282
      vertex 16.2862 -26.2736 4.09282
    endloop
  endfacet
  facet normal 0 0 1
    outer loop
      vertex 16.4316 -25.0764 4.09282
      vertex 9.61958 -24.9511 4.09282
      vertex 16.2862 -25.5236 4.09282
    endloop
  endfacet
  facet normal 0 0 1
    outer loop
      vertex 50.3804 -24.9511 4.09282
      vertex 9.61958 -24.9511 4.09282
      vertex 16.4316 -25.0764 4.09282
    endloop
  endfacet
  facet normal 0 0 1
    outer loop
      vertex 50 -27.5 4.09282
      vertex 50.3804 -24.9511 4.09282
      vertex 43.7138 -25.5236 4.09282
    endloop
  endfacet
  facet normal 0 0 1
    outer loop
      vertex 50 -27.5 4.09282
      vertex 43.7138 -25.5236 4.09282
      vertex 43.7138 -26.2736 4.09282
    endloop
  endfacet
  facet normal 0 0 1
    outer loop
      vertex 50 -27.5 4.09282
      vertex 43.3333 -26.55 4.09282
      vertex 10 -27.5 4.09282
    endloop
  endfacet
  facet normal 0 0 1
    outer loop
      vertex 50 -27.5 4.09282
      vertex 43.7138 -26.2736 4.09282
      vertex 43.3333 -26.55 4.09282
    endloop
  endfacet
  facet normal 0 0 1
    outer loop
      vertex 43.3333 -26.55 4.09282
      vertex 9.61958 -27.2236 4.09282
      vertex 10 -27.5 4.09282
    endloop
  endfacet
  facet normal 0 0 1
    outer loop
      vertex 43.3333 -26.55 4.09282
      vertex 16.6667 -26.55 4.09282
      vertex 9.61958 -27.2236 4.09282
    endloop
  endfacet
  facet normal 0 0 1
    outer loop
      vertex 16.4316 -25.0764 4.09282
      vertex 43.5684 -25.0764 4.09282
      vertex 50.3804 -24.9511 4.09282
    endloop
  endfacet
  facet normal 0 0 1
    outer loop
      vertex 43.5684 -25.0764 4.09282
      vertex 43.7138 -25.5236 4.09282
      vertex 50.3804 -24.9511 4.09282
    endloop
  endfacet
  facet normal -0.876552 -1.94634e-16 0.481308
    outer loop
      vertex 9.23915 -24.9511 3.4
      vertex 9.23916 -27.3472 3.4
      vertex 9.61958 -24.9511 4.09282
    endloop
  endfacet
  facet normal -0.876552 -1.94634e-16 0.481308
    outer loop
      vertex 9.61958 -24.9511 4.09282
      vertex 9.23916 -27.3472 3.4
      vertex 9.61958 -27.2236 4.09282
    endloop
  endfacet
  facet normal -0.532555 -0.733 0.423197
    outer loop
      vertex 9.61958 -27.2236 4.09282
      vertex 9.23916 -27.3472 3.4
      vertex 10 -27.9 3.4
    endloop
  endfacet
  facet normal -0.587785 -0.809017 0
    outer loop
      vertex 9.23916 -27.3472 3.4
      vertex 9.23916 -27.3472 -0.6
      vertex 10 -27.9 -0.6
    endloop
  endfacet
  facet normal -0.587785 -0.809017 0
    outer loop
      vertex 10 -27.9 3.4
      vertex 9.23916 -27.3472 3.4
      vertex 10 -27.9 -0.6
    endloop
  endfacet
  facet normal -0.532555 -0.733 -0.423198
    outer loop
      vertex 10 -27.9 -0.6
      vertex 9.23916 -27.3472 -0.6
      vertex 10 -27.5 -1.29282
    endloop
  endfacet
  facet normal -0.532555 -0.733 -0.423197
    outer loop
      vertex 10 -27.5 -1.29282
      vertex 9.23916 -27.3472 -0.6
      vertex 9.61958 -27.2236 -1.29282
    endloop
  endfacet
  facet normal 1.92296e-16 -0.866025 -0.5
    outer loop
      vertex 10 -27.9 -0.6
      vertex 10 -27.5 -1.29282
      vertex 50 -27.5 -1.29282
    endloop
  endfacet
  facet normal 1.92296e-16 -0.866025 -0.5
    outer loop
      vertex 50 -27.9 -0.6
      vertex 10 -27.9 -0.6
      vertex 50 -27.5 -1.29282
    endloop
  endfacet
  facet normal 0.532555 -0.733 -0.423198
    outer loop
      vertex 50 -27.9 -0.6
      vertex 50 -27.5 -1.29282
      vertex 50.3804 -27.2236 -1.29282
    endloop
  endfacet
  facet normal 0.532555 -0.733 -0.423197
    outer loop
      vertex 50.7608 -27.3472 -0.6
      vertex 50 -27.9 -0.6
      vertex 50.3804 -27.2236 -1.29282
    endloop
  endfacet
  facet normal 1 2.22045e-16 0
    outer loop
      vertex 16.2862 -25.5236 4.09282
      vertex 16.2862 -26.2736 4.09282
      vertex 16.2862 -26.2736 -1.29282
    endloop
  endfacet
  facet normal 1 2.22045e-16 0
    outer loop
      vertex 16.2862 -25.5236 -1.29282
      vertex 16.2862 -25.5236 4.09282
      vertex 16.2862 -26.2736 -1.29282
    endloop
  endfacet
  facet normal 0.951056 -0.309018 0
    outer loop
      vertex 16.4316 -25.0764 -1.29282
      vertex 16.4316 -25.0764 4.09282
      vertex 16.2862 -25.5236 4.09282
    endloop
  endfacet
  facet normal 0.951056 -0.309018 0
    outer loop
      vertex 16.2862 -25.5236 -1.29282
      vertex 16.4316 -25.0764 -1.29282
      vertex 16.2862 -25.5236 4.09282
    endloop
  endfacet
  facet normal 2.22045e-16 -1 0
    outer loop
      vertex 43.5684 -25.0764 -1.29282
      vertex 43.5684 -25.0764 4.09282
      vertex 16.4316 -25.0764 4.09282
    endloop
  endfacet
  facet normal 2.22045e-16 -1 0
    outer loop
      vertex 16.4316 -25.0764 -1.29282
      vertex 43.5684 -25.0764 -1.29282
      vertex 16.4316 -25.0764 4.09282
    endloop
  endfacet
  facet normal -0.951056 -0.309018 0
    outer loop
      vertex 43.7138 -25.5236 4.09282
      vertex 43.5684 -25.0764 4.09282
      vertex 43.7138 -25.5236 -1.29282
    endloop
  endfacet
  facet normal -0.951056 -0.309018 0
    outer loop
      vertex 43.7138 -25.5236 -1.29282
      vertex 43.5684 -25.0764 4.09282
      vertex 43.5684 -25.0764 -1.29282
    endloop
  endfacet
  facet normal -1 -2.22045e-16 0
    outer loop
      vertex 43.7138 -26.2736 4.09282
      vertex 43.7138 -25.5236 4.09282
      vertex 43.7138 -26.2736 -1.29282
    endloop
  endfacet
  facet normal -1 -2.22045e-16 0
    outer loop
      vertex 43.7138 -26.2736 -1.29282
      vertex 43.7138 -25.5236 4.09282
      vertex 43.7138 -25.5236 -1.29282
    endloop
  endfacet
  facet normal -0.587785 0.809017 0
    outer loop
      vertex 43.7138 -26.2736 4.09282
      vertex 43.7138 -26.2736 -1.29282
      vertex 43.3333 -26.55 4.09282
    endloop
  endfacet
  facet normal -0.587785 0.809017 0
    outer loop
      vertex 43.3333 -26.55 4.09282
      vertex 43.7138 -26.2736 -1.29282
      vertex 43.3333 -26.55 -1.29282
    endloop
  endfacet
  facet normal -2.22045e-16 1 0
    outer loop
      vertex 43.3333 -26.55 4.09282
      vertex 43.3333 -26.55 -1.29282
      vertex 16.6667 -26.55 4.09282
    endloop
  endfacet
  facet normal -2.22045e-16 1 0
    outer loop
      vertex 16.6667 -26.55 4.09282
      vertex 43.3333 -26.55 -1.29282
      vertex 16.6667 -26.55 -1.29282
    endloop
  endfacet
  facet normal 0.587785 0.809017 0
    outer loop
      vertex 16.6667 -26.55 4.09282
      vertex 16.6667 -26.55 -1.29282
      vertex 16.2862 -26.2736 4.09282
    endloop
  endfacet
  facet normal 0.587785 0.809017 0
    outer loop
      vertex 16.2862 -26.2736 4.09282
      vertex 16.6667 -26.55 -1.29282
      vertex 16.2862 -26.2736 -1.29282
    endloop
  endfacet
  facet normal 0.587785 -0.809017 0
    outer loop
      vertex 50 -27.9 3.4
      vertex 50 -27.9 -0.6
      vertex 50.7608 -27.3472 -0.6
    endloop
  endfacet
  facet normal 0.587785 -0.809017 0
    outer loop
      vertex 50.7608 -27.3472 3.4
      vertex 50 -27.9 3.4
      vertex 50.7608 -27.3472 -0.6
    endloop
  endfacet
  facet normal 0.532555 -0.733 0.423198
    outer loop
      vertex 50.7608 -27.3472 3.4
      vertex 50 -27.5 4.09282
      vertex 50 -27.9 3.4
    endloop
  endfacet
  facet normal 0.532555 -0.733 0.423197
    outer loop
      vertex 50.3804 -27.2236 4.09282
      vertex 50 -27.5 4.09282
      vertex 50.7608 -27.3472 3.4
    endloop
  endfacet
  facet normal 1.92296e-16 -0.866025 0.5
    outer loop
      vertex 50 -27.5 4.09282
      vertex 10 -27.5 4.09282
      vertex 10 -27.9 3.4
    endloop
  endfacet
  facet normal 1.92296e-16 -0.866025 0.5
    outer loop
      vertex 50 -27.9 3.4
      vertex 50 -27.5 4.09282
      vertex 10 -27.9 3.4
    endloop
  endfacet
  facet normal -0.532555 -0.733 0.423198
    outer loop
      vertex 10 -27.5 4.09282
      vertex 9.61958 -27.2236 4.09282
      vertex 10 -27.9 3.4
    endloop
  endfacet
  facet normal 2.22045e-16 -1 0
    outer loop
      vertex 10 -27.9 3.4
      vertex 10 -27.9 -0.6
      vertex 50 -27.9 -0.6
    endloop
  endfacet
  facet normal 2.22045e-16 -1 0
    outer loop
      vertex 50 -27.9 3.4
      vertex 10 -27.9 3.4
      vertex 50 -27.9 -0.6
    endloop
  endfacet
endsolid OpenSCAD_Model
